<mxfile host="app.diagrams.net" agent="Mozilla/5.0 (Windows NT 10.0; Win64; x64) AppleWebKit/537.36 (KHTML, like Gecko) Chrome/131.0.0.0 Safari/537.36" version="25.0.3">
  <diagram name="Página-1" id="tvEC6a8nzrt8jh5GVsLJ">
    <mxGraphModel grid="1" page="1" gridSize="10" guides="1" tooltips="1" connect="1" arrows="1" fold="1" pageScale="1" pageWidth="827" pageHeight="1169" background="none" math="0" shadow="0">
      <root>
        <mxCell id="0" />
        <mxCell id="1" parent="0" />
        <mxCell id="BZVooQixpb7APMNi6qxB-20" style="edgeStyle=orthogonalEdgeStyle;rounded=0;orthogonalLoop=1;jettySize=auto;html=1;exitX=1;exitY=0.25;exitDx=0;exitDy=0;entryX=0;entryY=0.5;entryDx=0;entryDy=0;" edge="1" parent="1" source="BZVooQixpb7APMNi6qxB-1" target="BZVooQixpb7APMNi6qxB-17">
          <mxGeometry relative="1" as="geometry" />
        </mxCell>
        <mxCell id="BZVooQixpb7APMNi6qxB-1" value="Actividad" style="swimlane;fontStyle=0;childLayout=stackLayout;horizontal=1;startSize=26;fillColor=none;horizontalStack=0;resizeParent=1;resizeParentMax=0;resizeLast=0;collapsible=1;marginBottom=0;whiteSpace=wrap;html=1;" vertex="1" parent="1">
          <mxGeometry x="-320" y="2430" width="140" height="156" as="geometry" />
        </mxCell>
        <mxCell id="BZVooQixpb7APMNi6qxB-2" value="+ act_pk: int" style="text;strokeColor=none;fillColor=none;align=left;verticalAlign=top;spacingLeft=4;spacingRight=4;overflow=hidden;rotatable=0;points=[[0,0.5],[1,0.5]];portConstraint=eastwest;whiteSpace=wrap;html=1;" vertex="1" parent="BZVooQixpb7APMNi6qxB-1">
          <mxGeometry y="26" width="140" height="26" as="geometry" />
        </mxCell>
        <mxCell id="BZVooQixpb7APMNi6qxB-3" value="+ act_nom: char" style="text;strokeColor=none;fillColor=none;align=left;verticalAlign=top;spacingLeft=4;spacingRight=4;overflow=hidden;rotatable=0;points=[[0,0.5],[1,0.5]];portConstraint=eastwest;whiteSpace=wrap;html=1;" vertex="1" parent="BZVooQixpb7APMNi6qxB-1">
          <mxGeometry y="52" width="140" height="26" as="geometry" />
        </mxCell>
        <mxCell id="BZVooQixpb7APMNi6qxB-5" value="+ rol_por_ini: date" style="text;strokeColor=none;fillColor=none;align=left;verticalAlign=top;spacingLeft=4;spacingRight=4;overflow=hidden;rotatable=0;points=[[0,0.5],[1,0.5]];portConstraint=eastwest;whiteSpace=wrap;html=1;" vertex="1" parent="BZVooQixpb7APMNi6qxB-1">
          <mxGeometry y="78" width="140" height="26" as="geometry" />
        </mxCell>
        <mxCell id="BZVooQixpb7APMNi6qxB-4" value="+ rol_por_por_fk:&amp;nbsp;" style="text;strokeColor=none;fillColor=none;align=left;verticalAlign=top;spacingLeft=4;spacingRight=4;overflow=hidden;rotatable=0;points=[[0,0.5],[1,0.5]];portConstraint=eastwest;whiteSpace=wrap;html=1;" vertex="1" parent="BZVooQixpb7APMNi6qxB-1">
          <mxGeometry y="104" width="140" height="26" as="geometry" />
        </mxCell>
        <mxCell id="BZVooQixpb7APMNi6qxB-6" value="+ rol_por_end: date" style="text;strokeColor=none;fillColor=none;align=left;verticalAlign=top;spacingLeft=4;spacingRight=4;overflow=hidden;rotatable=0;points=[[0,0.5],[1,0.5]];portConstraint=eastwest;whiteSpace=wrap;html=1;" vertex="1" parent="BZVooQixpb7APMNi6qxB-1">
          <mxGeometry y="130" width="140" height="26" as="geometry" />
        </mxCell>
        <mxCell id="BZVooQixpb7APMNi6qxB-10" value="cv_Usuario&lt;div&gt;Currículo vitae del Usuario&lt;/div&gt;" style="rounded=0;whiteSpace=wrap;html=1;" vertex="1" parent="1">
          <mxGeometry x="-311" y="2978" width="120" height="60" as="geometry" />
        </mxCell>
        <mxCell id="BZVooQixpb7APMNi6qxB-14" value="Usuario" style="swimlane;fontStyle=0;childLayout=stackLayout;horizontal=1;startSize=26;fillColor=none;horizontalStack=0;resizeParent=1;resizeParentMax=0;resizeLast=0;collapsible=1;marginBottom=0;whiteSpace=wrap;html=1;" vertex="1" parent="1">
          <mxGeometry x="-110" y="2480" width="140" height="182" as="geometry" />
        </mxCell>
        <mxCell id="BZVooQixpb7APMNi6qxB-15" value="+ usu_pk: int" style="text;strokeColor=none;fillColor=none;align=left;verticalAlign=top;spacingLeft=4;spacingRight=4;overflow=hidden;rotatable=0;points=[[0,0.5],[1,0.5]];portConstraint=eastwest;whiteSpace=wrap;html=1;" vertex="1" parent="BZVooQixpb7APMNi6qxB-14">
          <mxGeometry y="26" width="140" height="26" as="geometry" />
        </mxCell>
        <mxCell id="BZVooQixpb7APMNi6qxB-16" value="+ usu_nom: char" style="text;strokeColor=none;fillColor=none;align=left;verticalAlign=top;spacingLeft=4;spacingRight=4;overflow=hidden;rotatable=0;points=[[0,0.5],[1,0.5]];portConstraint=eastwest;whiteSpace=wrap;html=1;" vertex="1" parent="BZVooQixpb7APMNi6qxB-14">
          <mxGeometry y="52" width="140" height="26" as="geometry" />
        </mxCell>
        <mxCell id="BZVooQixpb7APMNi6qxB-18" value="+ usu_fec_ini: date" style="text;strokeColor=none;fillColor=none;align=left;verticalAlign=top;spacingLeft=4;spacingRight=4;overflow=hidden;rotatable=0;points=[[0,0.5],[1,0.5]];portConstraint=eastwest;whiteSpace=wrap;html=1;" vertex="1" parent="BZVooQixpb7APMNi6qxB-14">
          <mxGeometry y="78" width="140" height="26" as="geometry" />
        </mxCell>
        <mxCell id="BZVooQixpb7APMNi6qxB-17" value="+ usu_act_fk:&amp;nbsp;" style="text;strokeColor=none;fillColor=none;align=left;verticalAlign=top;spacingLeft=4;spacingRight=4;overflow=hidden;rotatable=0;points=[[0,0.5],[1,0.5]];portConstraint=eastwest;whiteSpace=wrap;html=1;" vertex="1" parent="BZVooQixpb7APMNi6qxB-14">
          <mxGeometry y="104" width="140" height="26" as="geometry" />
        </mxCell>
        <mxCell id="BZVooQixpb7APMNi6qxB-44" value="+ usu_dir_fk: date" style="text;strokeColor=none;fillColor=none;align=left;verticalAlign=top;spacingLeft=4;spacingRight=4;overflow=hidden;rotatable=0;points=[[0,0.5],[1,0.5]];portConstraint=eastwest;whiteSpace=wrap;html=1;" vertex="1" parent="BZVooQixpb7APMNi6qxB-14">
          <mxGeometry y="130" width="140" height="26" as="geometry" />
        </mxCell>
        <mxCell id="BZVooQixpb7APMNi6qxB-19" value="+ usu_fec_mod: date" style="text;strokeColor=none;fillColor=none;align=left;verticalAlign=top;spacingLeft=4;spacingRight=4;overflow=hidden;rotatable=0;points=[[0,0.5],[1,0.5]];portConstraint=eastwest;whiteSpace=wrap;html=1;" vertex="1" parent="BZVooQixpb7APMNi6qxB-14">
          <mxGeometry y="156" width="140" height="26" as="geometry" />
        </mxCell>
        <mxCell id="BZVooQixpb7APMNi6qxB-21" value="Direcciones" style="swimlane;fontStyle=0;childLayout=stackLayout;horizontal=1;startSize=26;fillColor=none;horizontalStack=0;resizeParent=1;resizeParentMax=0;resizeLast=0;collapsible=1;marginBottom=0;whiteSpace=wrap;html=1;" vertex="1" parent="1">
          <mxGeometry x="-321" y="2620" width="140" height="104" as="geometry" />
        </mxCell>
        <mxCell id="BZVooQixpb7APMNi6qxB-22" value="+ dir_pk: int" style="text;strokeColor=none;fillColor=none;align=left;verticalAlign=top;spacingLeft=4;spacingRight=4;overflow=hidden;rotatable=0;points=[[0,0.5],[1,0.5]];portConstraint=eastwest;whiteSpace=wrap;html=1;" vertex="1" parent="BZVooQixpb7APMNi6qxB-21">
          <mxGeometry y="26" width="140" height="26" as="geometry" />
        </mxCell>
        <mxCell id="BZVooQixpb7APMNi6qxB-23" value="+ dir_nom: char" style="text;strokeColor=none;fillColor=none;align=left;verticalAlign=top;spacingLeft=4;spacingRight=4;overflow=hidden;rotatable=0;points=[[0,0.5],[1,0.5]];portConstraint=eastwest;whiteSpace=wrap;html=1;" vertex="1" parent="BZVooQixpb7APMNi6qxB-21">
          <mxGeometry y="52" width="140" height="26" as="geometry" />
        </mxCell>
        <mxCell id="BZVooQixpb7APMNi6qxB-24" value="+ ciu_fk:&amp;nbsp;" style="text;strokeColor=none;fillColor=none;align=left;verticalAlign=top;spacingLeft=4;spacingRight=4;overflow=hidden;rotatable=0;points=[[0,0.5],[1,0.5]];portConstraint=eastwest;whiteSpace=wrap;html=1;" vertex="1" parent="BZVooQixpb7APMNi6qxB-21">
          <mxGeometry y="78" width="140" height="26" as="geometry" />
        </mxCell>
        <mxCell id="BZVooQixpb7APMNi6qxB-27" value="&lt;span style=&quot;color: rgba(0, 0, 0, 0); font-family: monospace; font-size: 0px; text-align: start;&quot;&gt;%3CmxGraphModel%3E%3Croot%3E%3CmxCell%20id%3D%220%22%2F%3E%3CmxCell%20id%3D%221%22%20parent%3D%220%22%2F%3E%3CmxCell%20id%3D%222%22%20value%3D%22Direcciones%22%20style%3D%22swimlane%3BfontStyle%3D0%3BchildLayout%3DstackLayout%3Bhorizontal%3D1%3BstartSize%3D26%3BfillColor%3Dnone%3BhorizontalStack%3D0%3BresizeParent%3D1%3BresizeParentMax%3D0%3BresizeLast%3D0%3Bcollapsible%3D1%3BmarginBottom%3D0%3BwhiteSpace%3Dwrap%3Bhtml%3D1%3B%22%20vertex%3D%221%22%20parent%3D%221%22%3E%3CmxGeometry%20x%3D%22243%22%20y%3D%22485%22%20width%3D%22140%22%20height%3D%22156%22%20as%3D%22geometry%22%2F%3E%3C%2FmxCell%3E%3CmxCell%20id%3D%223%22%20value%3D%22%2B%20dir_pk%3A%20int%22%20style%3D%22text%3BstrokeColor%3Dnone%3BfillColor%3Dnone%3Balign%3Dleft%3BverticalAlign%3Dtop%3BspacingLeft%3D4%3BspacingRight%3D4%3Boverflow%3Dhidden%3Brotatable%3D0%3Bpoints%3D%5B%5B0%2C0.5%5D%2C%5B1%2C0.5%5D%5D%3BportConstraint%3Deastwest%3BwhiteSpace%3Dwrap%3Bhtml%3D1%3B%22%20vertex%3D%221%22%20parent%3D%222%22%3E%3CmxGeometry%20y%3D%2226%22%20width%3D%22140%22%20height%3D%2226%22%20as%3D%22geometry%22%2F%3E%3C%2FmxCell%3E%3CmxCell%20id%3D%224%22%20value%3D%22%2B%20dir_nom%3A%20char%22%20style%3D%22text%3BstrokeColor%3Dnone%3BfillColor%3Dnone%3Balign%3Dleft%3BverticalAlign%3Dtop%3BspacingLeft%3D4%3BspacingRight%3D4%3Boverflow%3Dhidden%3Brotatable%3D0%3Bpoints%3D%5B%5B0%2C0.5%5D%2C%5B1%2C0.5%5D%5D%3BportConstraint%3Deastwest%3BwhiteSpace%3Dwrap%3Bhtml%3D1%3B%22%20vertex%3D%221%22%20parent%3D%222%22%3E%3CmxGeometry%20y%3D%2252%22%20width%3D%22140%22%20height%3D%2226%22%20as%3D%22geometry%22%2F%3E%3C%2FmxCell%3E%3CmxCell%20id%3D%225%22%20value%3D%22%2B%20rol_por_por_fk%3A%26amp%3Bnbsp%3B%22%20style%3D%22text%3BstrokeColor%3Dnone%3BfillColor%3Dnone%3Balign%3Dleft%3BverticalAlign%3Dtop%3BspacingLeft%3D4%3BspacingRight%3D4%3Boverflow%3Dhidden%3Brotatable%3D0%3Bpoints%3D%5B%5B0%2C0.5%5D%2C%5B1%2C0.5%5D%5D%3BportConstraint%3Deastwest%3BwhiteSpace%3Dwrap%3Bhtml%3D1%3B%22%20vertex%3D%221%22%20parent%3D%222%22%3E%3CmxGeometry%20y%3D%2278%22%20width%3D%22140%22%20height%3D%2226%22%20as%3D%22geometry%22%2F%3E%3C%2FmxCell%3E%3CmxCell%20id%3D%226%22%20value%3D%22%2B%20rol_por_ini%3A%20date%22%20style%3D%22text%3BstrokeColor%3Dnone%3BfillColor%3Dnone%3Balign%3Dleft%3BverticalAlign%3Dtop%3BspacingLeft%3D4%3BspacingRight%3D4%3Boverflow%3Dhidden%3Brotatable%3D0%3Bpoints%3D%5B%5B0%2C0.5%5D%2C%5B1%2C0.5%5D%5D%3BportConstraint%3Deastwest%3BwhiteSpace%3Dwrap%3Bhtml%3D1%3B%22%20vertex%3D%221%22%20parent%3D%222%22%3E%3CmxGeometry%20y%3D%22104%22%20width%3D%22140%22%20height%3D%2226%22%20as%3D%22geometry%22%2F%3E%3C%2FmxCell%3E%3CmxCell%20id%3D%227%22%20value%3D%22%2B%20rol_por_end%3A%20date%22%20style%3D%22text%3BstrokeColor%3Dnone%3BfillColor%3Dnone%3Balign%3Dleft%3BverticalAlign%3Dtop%3BspacingLeft%3D4%3BspacingRight%3D4%3Boverflow%3Dhidden%3Brotatable%3D0%3Bpoints%3D%5B%5B0%2C0.5%5D%2C%5B1%2C0.5%5D%5D%3BportConstraint%3Deastwest%3BwhiteSpace%3Dwrap%3Bhtml%3D1%3B%22%20vertex%3D%221%22%20parent%3D%222%22%3E%3CmxGeometry%20y%3D%22130%22%20width%3D%22140%22%20height%3D%2226%22%20as%3D%22geometry%22%2F%3E%3C%2FmxCell%3E%3C%2Froot%3E%3C%2FmxGraphModel%3E&lt;/span&gt;" style="text;html=1;align=center;verticalAlign=middle;resizable=0;points=[];autosize=1;strokeColor=none;fillColor=none;" vertex="1" parent="1">
          <mxGeometry x="-281" y="2948" width="20" height="30" as="geometry" />
        </mxCell>
        <mxCell id="BZVooQixpb7APMNi6qxB-28" value="Ciudades" style="swimlane;fontStyle=0;childLayout=stackLayout;horizontal=1;startSize=26;fillColor=none;horizontalStack=0;resizeParent=1;resizeParentMax=0;resizeLast=0;collapsible=1;marginBottom=0;whiteSpace=wrap;html=1;" vertex="1" parent="1">
          <mxGeometry x="-321" y="2750" width="170" height="104" as="geometry" />
        </mxCell>
        <mxCell id="BZVooQixpb7APMNi6qxB-29" value="+ ciu_pk: int" style="text;strokeColor=none;fillColor=none;align=left;verticalAlign=top;spacingLeft=4;spacingRight=4;overflow=hidden;rotatable=0;points=[[0,0.5],[1,0.5]];portConstraint=eastwest;whiteSpace=wrap;html=1;" vertex="1" parent="BZVooQixpb7APMNi6qxB-28">
          <mxGeometry y="26" width="170" height="26" as="geometry" />
        </mxCell>
        <mxCell id="BZVooQixpb7APMNi6qxB-30" value="+ ciu_nom: nvarchar(44)" style="text;strokeColor=none;fillColor=none;align=left;verticalAlign=top;spacingLeft=4;spacingRight=4;overflow=hidden;rotatable=0;points=[[0,0.5],[1,0.5]];portConstraint=eastwest;whiteSpace=wrap;html=1;" vertex="1" parent="BZVooQixpb7APMNi6qxB-28">
          <mxGeometry y="52" width="170" height="26" as="geometry" />
        </mxCell>
        <mxCell id="BZVooQixpb7APMNi6qxB-31" value="+ ciu_cp:&amp;nbsp;" style="text;strokeColor=none;fillColor=none;align=left;verticalAlign=top;spacingLeft=4;spacingRight=4;overflow=hidden;rotatable=0;points=[[0,0.5],[1,0.5]];portConstraint=eastwest;whiteSpace=wrap;html=1;" vertex="1" parent="BZVooQixpb7APMNi6qxB-28">
          <mxGeometry y="78" width="170" height="26" as="geometry" />
        </mxCell>
        <mxCell id="BZVooQixpb7APMNi6qxB-42" style="edgeStyle=orthogonalEdgeStyle;rounded=0;orthogonalLoop=1;jettySize=auto;html=1;exitX=0;exitY=0.5;exitDx=0;exitDy=0;entryX=0;entryY=0.5;entryDx=0;entryDy=0;" edge="1" parent="1" source="BZVooQixpb7APMNi6qxB-24" target="BZVooQixpb7APMNi6qxB-29">
          <mxGeometry relative="1" as="geometry" />
        </mxCell>
        <mxCell id="BZVooQixpb7APMNi6qxB-45" style="edgeStyle=orthogonalEdgeStyle;rounded=0;orthogonalLoop=1;jettySize=auto;html=1;exitX=1;exitY=0.5;exitDx=0;exitDy=0;entryX=0;entryY=0.5;entryDx=0;entryDy=0;" edge="1" parent="1" source="BZVooQixpb7APMNi6qxB-22" target="BZVooQixpb7APMNi6qxB-44">
          <mxGeometry relative="1" as="geometry" />
        </mxCell>
        <mxCell id="BZVooQixpb7APMNi6qxB-46" value="Universidades" style="swimlane;fontStyle=0;childLayout=stackLayout;horizontal=1;startSize=26;fillColor=none;horizontalStack=0;resizeParent=1;resizeParentMax=0;resizeLast=0;collapsible=1;marginBottom=0;whiteSpace=wrap;html=1;" vertex="1" parent="1">
          <mxGeometry x="-1521" y="2640" width="140" height="234" as="geometry" />
        </mxCell>
        <mxCell id="BZVooQixpb7APMNi6qxB-47" value="+ uni_pk: int" style="text;strokeColor=none;fillColor=none;align=left;verticalAlign=top;spacingLeft=4;spacingRight=4;overflow=hidden;rotatable=0;points=[[0,0.5],[1,0.5]];portConstraint=eastwest;whiteSpace=wrap;html=1;" vertex="1" parent="BZVooQixpb7APMNi6qxB-46">
          <mxGeometry y="26" width="140" height="26" as="geometry" />
        </mxCell>
        <mxCell id="BZVooQixpb7APMNi6qxB-48" value="+ uni_nom: char" style="text;strokeColor=none;fillColor=none;align=left;verticalAlign=top;spacingLeft=4;spacingRight=4;overflow=hidden;rotatable=0;points=[[0,0.5],[1,0.5]];portConstraint=eastwest;whiteSpace=wrap;html=1;" vertex="1" parent="BZVooQixpb7APMNi6qxB-46">
          <mxGeometry y="52" width="140" height="26" as="geometry" />
        </mxCell>
        <mxCell id="BZVooQixpb7APMNi6qxB-53" value="+ uni_sigla: char" style="text;strokeColor=none;fillColor=none;align=left;verticalAlign=top;spacingLeft=4;spacingRight=4;overflow=hidden;rotatable=0;points=[[0,0.5],[1,0.5]];portConstraint=eastwest;whiteSpace=wrap;html=1;" vertex="1" parent="BZVooQixpb7APMNi6qxB-46">
          <mxGeometry y="78" width="140" height="26" as="geometry" />
        </mxCell>
        <mxCell id="BZVooQixpb7APMNi6qxB-49" value="+ usu_fec_ini: date" style="text;strokeColor=none;fillColor=none;align=left;verticalAlign=top;spacingLeft=4;spacingRight=4;overflow=hidden;rotatable=0;points=[[0,0.5],[1,0.5]];portConstraint=eastwest;whiteSpace=wrap;html=1;" vertex="1" parent="BZVooQixpb7APMNi6qxB-46">
          <mxGeometry y="104" width="140" height="26" as="geometry" />
        </mxCell>
        <mxCell id="BZVooQixpb7APMNi6qxB-50" value="+ usu_act_fk:&amp;nbsp;" style="text;strokeColor=none;fillColor=none;align=left;verticalAlign=top;spacingLeft=4;spacingRight=4;overflow=hidden;rotatable=0;points=[[0,0.5],[1,0.5]];portConstraint=eastwest;whiteSpace=wrap;html=1;" vertex="1" parent="BZVooQixpb7APMNi6qxB-46">
          <mxGeometry y="130" width="140" height="26" as="geometry" />
        </mxCell>
        <mxCell id="BZVooQixpb7APMNi6qxB-51" value="+ usu_dir_fk: date" style="text;strokeColor=none;fillColor=none;align=left;verticalAlign=top;spacingLeft=4;spacingRight=4;overflow=hidden;rotatable=0;points=[[0,0.5],[1,0.5]];portConstraint=eastwest;whiteSpace=wrap;html=1;" vertex="1" parent="BZVooQixpb7APMNi6qxB-46">
          <mxGeometry y="156" width="140" height="26" as="geometry" />
        </mxCell>
        <mxCell id="BZVooQixpb7APMNi6qxB-52" value="+ usu_fec_mod: date" style="text;strokeColor=none;fillColor=none;align=left;verticalAlign=top;spacingLeft=4;spacingRight=4;overflow=hidden;rotatable=0;points=[[0,0.5],[1,0.5]];portConstraint=eastwest;whiteSpace=wrap;html=1;" vertex="1" parent="BZVooQixpb7APMNi6qxB-46">
          <mxGeometry y="182" width="140" height="26" as="geometry" />
        </mxCell>
        <mxCell id="BZVooQixpb7APMNi6qxB-66" value="+ est_fk:&amp;nbsp;" style="text;strokeColor=none;fillColor=none;align=left;verticalAlign=top;spacingLeft=4;spacingRight=4;overflow=hidden;rotatable=0;points=[[0,0.5],[1,0.5]];portConstraint=eastwest;whiteSpace=wrap;html=1;" vertex="1" parent="BZVooQixpb7APMNi6qxB-46">
          <mxGeometry y="208" width="140" height="26" as="geometry" />
        </mxCell>
        <mxCell id="BZVooQixpb7APMNi6qxB-54" value="Carrera" style="swimlane;fontStyle=0;childLayout=stackLayout;horizontal=1;startSize=26;fillColor=none;horizontalStack=0;resizeParent=1;resizeParentMax=0;resizeLast=0;collapsible=1;marginBottom=0;whiteSpace=wrap;html=1;" vertex="1" parent="1">
          <mxGeometry x="-1101" y="2710" width="140" height="156" as="geometry" />
        </mxCell>
        <mxCell id="BZVooQixpb7APMNi6qxB-59" value="+ usu_act_fk:&amp;nbsp;" style="text;strokeColor=none;fillColor=none;align=left;verticalAlign=top;spacingLeft=4;spacingRight=4;overflow=hidden;rotatable=0;points=[[0,0.5],[1,0.5]];portConstraint=eastwest;whiteSpace=wrap;html=1;" vertex="1" parent="BZVooQixpb7APMNi6qxB-54">
          <mxGeometry y="26" width="140" height="26" as="geometry" />
        </mxCell>
        <mxCell id="BZVooQixpb7APMNi6qxB-55" value="+ carr_pk: int" style="text;strokeColor=none;fillColor=none;align=left;verticalAlign=top;spacingLeft=4;spacingRight=4;overflow=hidden;rotatable=0;points=[[0,0.5],[1,0.5]];portConstraint=eastwest;whiteSpace=wrap;html=1;" vertex="1" parent="BZVooQixpb7APMNi6qxB-54">
          <mxGeometry y="52" width="140" height="26" as="geometry" />
        </mxCell>
        <mxCell id="BZVooQixpb7APMNi6qxB-56" value="+ carr_nom: char" style="text;strokeColor=none;fillColor=none;align=left;verticalAlign=top;spacingLeft=4;spacingRight=4;overflow=hidden;rotatable=0;points=[[0,0.5],[1,0.5]];portConstraint=eastwest;whiteSpace=wrap;html=1;" vertex="1" parent="BZVooQixpb7APMNi6qxB-54">
          <mxGeometry y="78" width="140" height="26" as="geometry" />
        </mxCell>
        <mxCell id="BZVooQixpb7APMNi6qxB-57" value="+ uni_sigla: char" style="text;strokeColor=none;fillColor=none;align=left;verticalAlign=top;spacingLeft=4;spacingRight=4;overflow=hidden;rotatable=0;points=[[0,0.5],[1,0.5]];portConstraint=eastwest;whiteSpace=wrap;html=1;" vertex="1" parent="BZVooQixpb7APMNi6qxB-54">
          <mxGeometry y="104" width="140" height="26" as="geometry" />
        </mxCell>
        <mxCell id="BZVooQixpb7APMNi6qxB-58" value="+ usu_fec_ini: date" style="text;strokeColor=none;fillColor=none;align=left;verticalAlign=top;spacingLeft=4;spacingRight=4;overflow=hidden;rotatable=0;points=[[0,0.5],[1,0.5]];portConstraint=eastwest;whiteSpace=wrap;html=1;" vertex="1" parent="BZVooQixpb7APMNi6qxB-54">
          <mxGeometry y="130" width="140" height="26" as="geometry" />
        </mxCell>
        <mxCell id="BZVooQixpb7APMNi6qxB-62" value="Estudio" style="swimlane;fontStyle=0;childLayout=stackLayout;horizontal=1;startSize=26;fillColor=none;horizontalStack=0;resizeParent=1;resizeParentMax=0;resizeLast=0;collapsible=1;marginBottom=0;whiteSpace=wrap;html=1;" vertex="1" parent="1">
          <mxGeometry x="-1291" y="2710" width="140" height="130" as="geometry" />
        </mxCell>
        <mxCell id="BZVooQixpb7APMNi6qxB-63" value="+ est_pk: int" style="text;strokeColor=none;fillColor=none;align=left;verticalAlign=top;spacingLeft=4;spacingRight=4;overflow=hidden;rotatable=0;points=[[0,0.5],[1,0.5]];portConstraint=eastwest;whiteSpace=wrap;html=1;" vertex="1" parent="BZVooQixpb7APMNi6qxB-62">
          <mxGeometry y="26" width="140" height="26" as="geometry" />
        </mxCell>
        <mxCell id="BZVooQixpb7APMNi6qxB-64" value="+ uni_nom: char" style="text;strokeColor=none;fillColor=none;align=left;verticalAlign=top;spacingLeft=4;spacingRight=4;overflow=hidden;rotatable=0;points=[[0,0.5],[1,0.5]];portConstraint=eastwest;whiteSpace=wrap;html=1;" vertex="1" parent="BZVooQixpb7APMNi6qxB-62">
          <mxGeometry y="52" width="140" height="26" as="geometry" />
        </mxCell>
        <mxCell id="BZVooQixpb7APMNi6qxB-65" value="+ uni_sigla: char" style="text;strokeColor=none;fillColor=none;align=left;verticalAlign=top;spacingLeft=4;spacingRight=4;overflow=hidden;rotatable=0;points=[[0,0.5],[1,0.5]];portConstraint=eastwest;whiteSpace=wrap;html=1;" vertex="1" parent="BZVooQixpb7APMNi6qxB-62">
          <mxGeometry y="78" width="140" height="26" as="geometry" />
        </mxCell>
        <mxCell id="BZVooQixpb7APMNi6qxB-67" value="+ carr_fk:&amp;nbsp;" style="text;strokeColor=none;fillColor=none;align=left;verticalAlign=top;spacingLeft=4;spacingRight=4;overflow=hidden;rotatable=0;points=[[0,0.5],[1,0.5]];portConstraint=eastwest;whiteSpace=wrap;html=1;" vertex="1" parent="BZVooQixpb7APMNi6qxB-62">
          <mxGeometry y="104" width="140" height="26" as="geometry" />
        </mxCell>
        <mxCell id="BZVooQixpb7APMNi6qxB-73" style="edgeStyle=orthogonalEdgeStyle;rounded=0;orthogonalLoop=1;jettySize=auto;html=1;exitX=0;exitY=0.5;exitDx=0;exitDy=0;entryX=1;entryY=0.5;entryDx=0;entryDy=0;" edge="1" parent="1" source="BZVooQixpb7APMNi6qxB-55" target="BZVooQixpb7APMNi6qxB-67">
          <mxGeometry relative="1" as="geometry" />
        </mxCell>
        <mxCell id="BZVooQixpb7APMNi6qxB-83" value="Regi_funcionales" style="swimlane;fontStyle=0;childLayout=stackLayout;horizontal=1;startSize=26;fillColor=none;horizontalStack=0;resizeParent=1;resizeParentMax=0;resizeLast=0;collapsible=1;marginBottom=0;whiteSpace=wrap;html=1;" vertex="1" parent="1">
          <mxGeometry x="-110" y="3020" width="200" height="208" as="geometry" />
        </mxCell>
        <mxCell id="BZVooQixpb7APMNi6qxB-84" value="+ reg_fun_pk: int" style="text;strokeColor=none;fillColor=none;align=left;verticalAlign=top;spacingLeft=4;spacingRight=4;overflow=hidden;rotatable=0;points=[[0,0.5],[1,0.5]];portConstraint=eastwest;whiteSpace=wrap;html=1;" vertex="1" parent="BZVooQixpb7APMNi6qxB-83">
          <mxGeometry y="26" width="200" height="26" as="geometry" />
        </mxCell>
        <mxCell id="BZVooQixpb7APMNi6qxB-85" value="+ fun_nom: char" style="text;strokeColor=none;fillColor=none;align=left;verticalAlign=top;spacingLeft=4;spacingRight=4;overflow=hidden;rotatable=0;points=[[0,0.5],[1,0.5]];portConstraint=eastwest;whiteSpace=wrap;html=1;" vertex="1" parent="BZVooQixpb7APMNi6qxB-83">
          <mxGeometry y="52" width="200" height="26" as="geometry" />
        </mxCell>
        <mxCell id="BZVooQixpb7APMNi6qxB-86" value="+ fun_drescriptivo: nvarchar(44)" style="text;strokeColor=none;fillColor=none;align=left;verticalAlign=top;spacingLeft=4;spacingRight=4;overflow=hidden;rotatable=0;points=[[0,0.5],[1,0.5]];portConstraint=eastwest;whiteSpace=wrap;html=1;" vertex="1" parent="BZVooQixpb7APMNi6qxB-83">
          <mxGeometry y="78" width="200" height="26" as="geometry" />
        </mxCell>
        <mxCell id="BZVooQixpb7APMNi6qxB-87" value="+ fun_prioridad: char(4)" style="text;strokeColor=none;fillColor=none;align=left;verticalAlign=top;spacingLeft=4;spacingRight=4;overflow=hidden;rotatable=0;points=[[0,0.5],[1,0.5]];portConstraint=eastwest;whiteSpace=wrap;html=1;" vertex="1" parent="BZVooQixpb7APMNi6qxB-83">
          <mxGeometry y="104" width="200" height="26" as="geometry" />
        </mxCell>
        <mxCell id="BZVooQixpb7APMNi6qxB-88" value="+ usu_act_fk:&amp;nbsp;" style="text;strokeColor=none;fillColor=none;align=left;verticalAlign=top;spacingLeft=4;spacingRight=4;overflow=hidden;rotatable=0;points=[[0,0.5],[1,0.5]];portConstraint=eastwest;whiteSpace=wrap;html=1;" vertex="1" parent="BZVooQixpb7APMNi6qxB-83">
          <mxGeometry y="130" width="200" height="26" as="geometry" />
        </mxCell>
        <mxCell id="BZVooQixpb7APMNi6qxB-89" value="+ usu_dir_fk: date" style="text;strokeColor=none;fillColor=none;align=left;verticalAlign=top;spacingLeft=4;spacingRight=4;overflow=hidden;rotatable=0;points=[[0,0.5],[1,0.5]];portConstraint=eastwest;whiteSpace=wrap;html=1;" vertex="1" parent="BZVooQixpb7APMNi6qxB-83">
          <mxGeometry y="156" width="200" height="26" as="geometry" />
        </mxCell>
        <mxCell id="BZVooQixpb7APMNi6qxB-90" value="+ usu_fec_mod: date" style="text;strokeColor=none;fillColor=none;align=left;verticalAlign=top;spacingLeft=4;spacingRight=4;overflow=hidden;rotatable=0;points=[[0,0.5],[1,0.5]];portConstraint=eastwest;whiteSpace=wrap;html=1;" vertex="1" parent="BZVooQixpb7APMNi6qxB-83">
          <mxGeometry y="182" width="200" height="26" as="geometry" />
        </mxCell>
        <mxCell id="znMl5Fk1BX0p0iZNXUY9-37" value="&lt;div style=&quot;color: rgb(204, 204, 204); font-family: Consolas, &amp;quot;Courier New&amp;quot;, monospace; font-size: 14px; line-height: 19px; white-space: pre;&quot;&gt;&lt;span style=&quot;color: rgb(106, 153, 85);&quot;&gt;oferta_estudio (Luz)&lt;/span&gt;&lt;/div&gt;" style="swimlane;fontStyle=0;childLayout=stackLayout;horizontal=1;startSize=26;fillColor=none;horizontalStack=0;resizeParent=1;resizeParentMax=0;resizeLast=0;collapsible=1;marginBottom=0;whiteSpace=wrap;html=1;" vertex="1" parent="1">
          <mxGeometry x="155" y="2320" width="280" height="338" as="geometry" />
        </mxCell>
        <mxCell id="znMl5Fk1BX0p0iZNXUY9-38" value="&lt;span style=&quot;font-family: Consolas, &amp;quot;Courier New&amp;quot;, monospace; font-size: 14px; white-space: pre;&quot;&gt;&lt;font color=&quot;#0000ff&quot;&gt;+ pk_ofe_est: charFiel(20)&lt;/font&gt;&lt;/span&gt;" style="text;strokeColor=none;fillColor=none;align=left;verticalAlign=top;spacingLeft=4;spacingRight=4;overflow=hidden;rotatable=0;points=[[0,0.5],[1,0.5]];portConstraint=eastwest;whiteSpace=wrap;html=1;" vertex="1" parent="znMl5Fk1BX0p0iZNXUY9-37">
          <mxGeometry y="26" width="280" height="26" as="geometry" />
        </mxCell>
        <mxCell id="znMl5Fk1BX0p0iZNXUY9-39" value="&lt;font style=&quot;&quot; color=&quot;#0000ff&quot;&gt;&lt;font face=&quot;Consolas, Courier New, monospace&quot;&gt;&lt;span style=&quot;font-size: 14px; white-space: pre;&quot;&gt;+ Curs_acad: varchar(44)&lt;/span&gt;&lt;/font&gt;&lt;/font&gt;" style="text;strokeColor=none;fillColor=none;align=left;verticalAlign=top;spacingLeft=4;spacingRight=4;overflow=hidden;rotatable=0;points=[[0,0.5],[1,0.5]];portConstraint=eastwest;whiteSpace=wrap;html=1;" vertex="1" parent="znMl5Fk1BX0p0iZNXUY9-37">
          <mxGeometry y="52" width="280" height="26" as="geometry" />
        </mxCell>
        <mxCell id="znMl5Fk1BX0p0iZNXUY9-40" value="&lt;font color=&quot;#0000ff&quot;&gt;&lt;span style=&quot;font-family: Consolas, &amp;quot;Courier New&amp;quot;, monospace; font-size: 14px; white-space: pre;&quot;&gt;+ &lt;/span&gt;&lt;font face=&quot;Consolas, Courier New, monospace&quot;&gt;&lt;span style=&quot;font-size: 14px; white-space: pre;&quot;&gt;Any_ofe_est&lt;/span&gt;&lt;/font&gt;&lt;span style=&quot;font-family: Consolas, &amp;quot;Courier New&amp;quot;, monospace; font-size: 14px; white-space: pre;&quot;&gt;: nvarchar(44)&lt;/span&gt;&lt;/font&gt;" style="text;strokeColor=none;fillColor=none;align=left;verticalAlign=top;spacingLeft=4;spacingRight=4;overflow=hidden;rotatable=0;points=[[0,0.5],[1,0.5]];portConstraint=eastwest;whiteSpace=wrap;html=1;" vertex="1" parent="znMl5Fk1BX0p0iZNXUY9-37">
          <mxGeometry y="78" width="280" height="26" as="geometry" />
        </mxCell>
        <mxCell id="znMl5Fk1BX0p0iZNXUY9-41" value="&lt;div style=&quot;line-height: 19px;&quot;&gt;&lt;font style=&quot;font-family: Consolas, &amp;quot;Courier New&amp;quot;, monospace; font-size: 14px; white-space: pre;&quot; color=&quot;#0000ff&quot;&gt;+ &lt;/font&gt;&lt;span style=&quot;background-color: initial; font-size: 14px; white-space: pre;&quot;&gt;&lt;font face=&quot;Consolas, Courier New, monospace&quot; color=&quot;#0000ff&quot;&gt;Oferta: TextField&lt;/font&gt;&lt;/span&gt;&lt;/div&gt;" style="text;strokeColor=none;fillColor=none;align=left;verticalAlign=top;spacingLeft=4;spacingRight=4;overflow=hidden;rotatable=0;points=[[0,0.5],[1,0.5]];portConstraint=eastwest;whiteSpace=wrap;html=1;" vertex="1" parent="znMl5Fk1BX0p0iZNXUY9-37">
          <mxGeometry y="104" width="280" height="26" as="geometry" />
        </mxCell>
        <mxCell id="znMl5Fk1BX0p0iZNXUY9-42" value="&lt;div style=&quot;line-height: 19px;&quot;&gt;&lt;font style=&quot;&quot; color=&quot;#0000ff&quot;&gt;&lt;font face=&quot;Consolas, Courier New, monospace&quot;&gt;&lt;span style=&quot;font-size: 14px; white-space: pre;&quot;&gt;+ nom_ofe_est: Charfield (100)&lt;/span&gt;&lt;/font&gt;&lt;/font&gt;&lt;/div&gt;" style="text;strokeColor=none;fillColor=none;align=left;verticalAlign=top;spacingLeft=4;spacingRight=4;overflow=hidden;rotatable=0;points=[[0,0.5],[1,0.5]];portConstraint=eastwest;whiteSpace=wrap;html=1;" vertex="1" parent="znMl5Fk1BX0p0iZNXUY9-37">
          <mxGeometry y="130" width="280" height="26" as="geometry" />
        </mxCell>
        <mxCell id="znMl5Fk1BX0p0iZNXUY9-43" value="&lt;div style=&quot;line-height: 19px;&quot;&gt;&lt;font style=&quot;&quot; color=&quot;#0000ff&quot;&gt;&lt;font face=&quot;Consolas, Courier New, monospace&quot;&gt;&lt;span style=&quot;font-size: 14px; white-space: pre;&quot;&gt;+ Tip_ofe_est:&lt;/span&gt;&amp;nbsp;CharField (50)&lt;/font&gt;&lt;/font&gt;&lt;/div&gt;" style="text;strokeColor=none;fillColor=none;align=left;verticalAlign=top;spacingLeft=4;spacingRight=4;overflow=hidden;rotatable=0;points=[[0,0.5],[1,0.5]];portConstraint=eastwest;whiteSpace=wrap;html=1;" vertex="1" parent="znMl5Fk1BX0p0iZNXUY9-37">
          <mxGeometry y="156" width="280" height="26" as="geometry" />
        </mxCell>
        <mxCell id="znMl5Fk1BX0p0iZNXUY9-44" value="&lt;div style=&quot;line-height: 19px;&quot;&gt;&lt;div style=&quot;line-height: 19px;&quot;&gt;&lt;font style=&quot;&quot; color=&quot;#0000ff&quot;&gt;&lt;font face=&quot;Consolas, Courier New, monospace&quot;&gt;&lt;span style=&quot;font-size: 14px; white-space: pre;&quot;&gt;+ sig_uni_ofe_est: varchar(44)&lt;/span&gt;&lt;/font&gt;&lt;/font&gt;&lt;/div&gt;&lt;/div&gt;" style="text;strokeColor=none;fillColor=none;align=left;verticalAlign=top;spacingLeft=4;spacingRight=4;overflow=hidden;rotatable=0;points=[[0,0.5],[1,0.5]];portConstraint=eastwest;whiteSpace=wrap;html=1;" vertex="1" parent="znMl5Fk1BX0p0iZNXUY9-37">
          <mxGeometry y="182" width="280" height="26" as="geometry" />
        </mxCell>
        <mxCell id="znMl5Fk1BX0p0iZNXUY9-45" value="&lt;div style=&quot;font-family: Consolas, &amp;quot;Courier New&amp;quot;, monospace; font-size: 14px; line-height: 19px; white-space: pre;&quot;&gt;&lt;div style=&quot;line-height: 19px;&quot;&gt;&lt;font color=&quot;#0000ff&quot;&gt;+ resp_ofe_est:CharField(100)&lt;/font&gt;&lt;/div&gt;&lt;/div&gt;" style="text;strokeColor=none;fillColor=none;align=left;verticalAlign=top;spacingLeft=4;spacingRight=4;overflow=hidden;rotatable=0;points=[[0,0.5],[1,0.5]];portConstraint=eastwest;whiteSpace=wrap;html=1;" vertex="1" parent="znMl5Fk1BX0p0iZNXUY9-37">
          <mxGeometry y="208" width="280" height="26" as="geometry" />
        </mxCell>
        <mxCell id="znMl5Fk1BX0p0iZNXUY9-46" value="&lt;div style=&quot;line-height: 19px;&quot;&gt;&lt;div style=&quot;line-height: 19px;&quot;&gt;&lt;font style=&quot;font-family: Consolas, &amp;quot;Courier New&amp;quot;, monospace; font-size: 14px; white-space: pre;&quot; color=&quot;#0000ff&quot;&gt;+ v&lt;/font&gt;&lt;span style=&quot;background-color: initial; font-size: 14px; white-space: pre;&quot;&gt;&lt;font face=&quot;Consolas, Courier New, monospace&quot; color=&quot;#0000ff&quot;&gt;ia_acc_ofe_est: CharField(100)&lt;/font&gt;&lt;/span&gt;&lt;/div&gt;&lt;/div&gt;" style="text;strokeColor=none;fillColor=none;align=left;verticalAlign=top;spacingLeft=4;spacingRight=4;overflow=hidden;rotatable=0;points=[[0,0.5],[1,0.5]];portConstraint=eastwest;whiteSpace=wrap;html=1;" vertex="1" parent="znMl5Fk1BX0p0iZNXUY9-37">
          <mxGeometry y="234" width="280" height="26" as="geometry" />
        </mxCell>
        <mxCell id="znMl5Fk1BX0p0iZNXUY9-47" value="&lt;div style=&quot;line-height: 19px;&quot;&gt;&lt;div style=&quot;line-height: 19px;&quot;&gt;&lt;font style=&quot;font-family: Consolas, &amp;quot;Courier New&amp;quot;, monospace; font-size: 14px; white-space: pre;&quot; color=&quot;#0000ff&quot;&gt;+ &lt;/font&gt;&lt;span style=&quot;background-color: initial; font-size: 14px; white-space: pre;&quot;&gt;&lt;font face=&quot;Consolas, Courier New, monospace&quot; color=&quot;#0000ff&quot;&gt;Not_tall: DecimalFeld&lt;/font&gt;&lt;/span&gt;&lt;/div&gt;&lt;/div&gt;" style="text;strokeColor=none;fillColor=none;align=left;verticalAlign=top;spacingLeft=4;spacingRight=4;overflow=hidden;rotatable=0;points=[[0,0.5],[1,0.5]];portConstraint=eastwest;whiteSpace=wrap;html=1;" vertex="1" parent="znMl5Fk1BX0p0iZNXUY9-37">
          <mxGeometry y="260" width="280" height="26" as="geometry" />
        </mxCell>
        <mxCell id="znMl5Fk1BX0p0iZNXUY9-48" value="&lt;div style=&quot;line-height: 19px;&quot;&gt;&lt;font style=&quot;font-family: Consolas, &amp;quot;Courier New&amp;quot;, monospace; font-size: 14px; white-space: pre;&quot; color=&quot;#0000ff&quot;&gt;+ &lt;/font&gt;&lt;span style=&quot;background-color: initial; font-size: 14px; white-space: pre;&quot;&gt;&lt;font face=&quot;Consolas, Courier New, monospace&quot; color=&quot;#0000ff&quot;&gt;Mun_ofe_est: CharField (100)&lt;/font&gt;&lt;/span&gt;&lt;/div&gt;" style="text;strokeColor=none;fillColor=none;align=left;verticalAlign=top;spacingLeft=4;spacingRight=4;overflow=hidden;rotatable=0;points=[[0,0.5],[1,0.5]];portConstraint=eastwest;whiteSpace=wrap;html=1;" vertex="1" parent="znMl5Fk1BX0p0iZNXUY9-37">
          <mxGeometry y="286" width="280" height="26" as="geometry" />
        </mxCell>
        <mxCell id="znMl5Fk1BX0p0iZNXUY9-49" value="&lt;div style=&quot;line-height: 19px;&quot;&gt;&lt;div style=&quot;line-height: 19px;&quot;&gt;&lt;font style=&quot;font-family: Consolas, &amp;quot;Courier New&amp;quot;, monospace; font-size: 14px; white-space: pre;&quot; color=&quot;#0000ff&quot;&gt;+ &lt;/font&gt;&lt;span style=&quot;background-color: initial; font-size: 14px; white-space: pre;&quot;&gt;&lt;font face=&quot;Consolas, Courier New, monospace&quot; color=&quot;#0000ff&quot;&gt;Nom_plazas_ofe_est: IntegerField&lt;/font&gt;&lt;/span&gt;&lt;/div&gt;&lt;/div&gt;" style="text;strokeColor=none;fillColor=none;align=left;verticalAlign=top;spacingLeft=4;spacingRight=4;overflow=hidden;rotatable=0;points=[[0,0.5],[1,0.5]];portConstraint=eastwest;whiteSpace=wrap;html=1;" vertex="1" parent="znMl5Fk1BX0p0iZNXUY9-37">
          <mxGeometry y="312" width="280" height="26" as="geometry" />
        </mxCell>
        <mxCell id="HBgZYf5v92plN2gd6lQA-18" value="&lt;div style=&quot;font-family: Consolas, &amp;quot;Courier New&amp;quot;, monospace; font-size: 14px; line-height: 19px; white-space: pre;&quot;&gt;&lt;font color=&quot;#6a9955&quot;&gt;Dat_Per&lt;/font&gt;&lt;/div&gt;" style="swimlane;fontStyle=0;childLayout=stackLayout;horizontal=1;startSize=26;fillColor=none;horizontalStack=0;resizeParent=1;resizeParentMax=0;resizeLast=0;collapsible=1;marginBottom=0;whiteSpace=wrap;html=1;" vertex="1" parent="1">
          <mxGeometry x="-153" y="539" width="238" height="416" as="geometry" />
        </mxCell>
        <mxCell id="HBgZYf5v92plN2gd6lQA-19" value="&lt;font color=&quot;#ff8000&quot; style=&quot;&quot; face=&quot;Consolas, Courier New, monospace&quot;&gt;&lt;span style=&quot;font-size: 14px; white-space: pre;&quot;&gt;+ pk_per: SmallAutoField&lt;/span&gt;&lt;/font&gt;" style="text;strokeColor=none;fillColor=none;align=left;verticalAlign=top;spacingLeft=4;spacingRight=4;overflow=hidden;rotatable=0;points=[[0,0.5],[1,0.5]];portConstraint=eastwest;whiteSpace=wrap;html=1;" vertex="1" parent="HBgZYf5v92plN2gd6lQA-18">
          <mxGeometry y="26" width="238" height="26" as="geometry" />
        </mxCell>
        <mxCell id="HBgZYf5v92plN2gd6lQA-20" value="&lt;span style=&quot;font-family: Consolas, &amp;quot;Courier New&amp;quot;, monospace; font-size: 14px; white-space: pre;&quot;&gt;&lt;font color=&quot;#0000ff&quot;&gt;+ &lt;/font&gt;&lt;/span&gt;&lt;font face=&quot;Consolas, Courier New, monospace&quot; color=&quot;#0000ff&quot;&gt;&lt;span style=&quot;font-size: 14px; white-space: pre;&quot;&gt;nom_per: CharField (150)&lt;/span&gt;&lt;/font&gt;" style="text;strokeColor=#0e8088;fillColor=#b0e3e6;align=left;verticalAlign=top;spacingLeft=4;spacingRight=4;overflow=hidden;rotatable=0;points=[[0,0.5],[1,0.5]];portConstraint=eastwest;whiteSpace=wrap;html=1;" vertex="1" parent="HBgZYf5v92plN2gd6lQA-18">
          <mxGeometry y="52" width="238" height="26" as="geometry" />
        </mxCell>
        <mxCell id="HBgZYf5v92plN2gd6lQA-21" value="&lt;font color=&quot;#0000ff&quot;&gt;&lt;span style=&quot;font-family: Consolas, &amp;quot;Courier New&amp;quot;, monospace; font-size: 14px; white-space: pre;&quot;&gt;+ &lt;/span&gt;&lt;/font&gt;&lt;font face=&quot;Consolas, Courier New, monospace&quot; color=&quot;#0000ff&quot;&gt;&lt;span style=&quot;font-size: 14px; white-space: pre;&quot;&gt;dni_per: CharField (15)&lt;/span&gt;&lt;/font&gt;" style="text;strokeColor=#0e8088;fillColor=#b0e3e6;align=left;verticalAlign=top;spacingLeft=4;spacingRight=4;overflow=hidden;rotatable=0;points=[[0,0.5],[1,0.5]];portConstraint=eastwest;whiteSpace=wrap;html=1;" vertex="1" parent="HBgZYf5v92plN2gd6lQA-18">
          <mxGeometry y="78" width="238" height="26" as="geometry" />
        </mxCell>
        <mxCell id="HBgZYf5v92plN2gd6lQA-22" value="&lt;div style=&quot;line-height: 19px;&quot;&gt;&lt;font style=&quot;font-family: Consolas, &amp;quot;Courier New&amp;quot;, monospace; font-size: 14px; white-space: pre;&quot; color=&quot;#0000ff&quot;&gt;+ &lt;/font&gt;&lt;span style=&quot;background-color: initial; font-size: 14px; white-space: pre;&quot;&gt;&lt;font face=&quot;Consolas, Courier New, monospace&quot; color=&quot;#0000ff&quot;&gt;fn_per: DateField&lt;/font&gt;&lt;/span&gt;&lt;/div&gt;" style="text;strokeColor=#0e8088;fillColor=#b0e3e6;align=left;verticalAlign=top;spacingLeft=4;spacingRight=4;overflow=hidden;rotatable=0;points=[[0,0.5],[1,0.5]];portConstraint=eastwest;whiteSpace=wrap;html=1;" vertex="1" parent="HBgZYf5v92plN2gd6lQA-18">
          <mxGeometry y="104" width="238" height="26" as="geometry" />
        </mxCell>
        <mxCell id="HBgZYf5v92plN2gd6lQA-23" value="&lt;div style=&quot;line-height: 19px;&quot;&gt;&lt;font style=&quot;&quot; color=&quot;#0000ff&quot;&gt;&lt;font face=&quot;Consolas, Courier New, monospace&quot;&gt;&lt;span style=&quot;font-size: 14px; white-space: pre;&quot;&gt;+ cn_per: CharField (150)&lt;/span&gt;&lt;/font&gt;&lt;/font&gt;&lt;/div&gt;" style="text;strokeColor=#0e8088;fillColor=#b0e3e6;align=left;verticalAlign=top;spacingLeft=4;spacingRight=4;overflow=hidden;rotatable=0;points=[[0,0.5],[1,0.5]];portConstraint=eastwest;whiteSpace=wrap;html=1;" vertex="1" parent="HBgZYf5v92plN2gd6lQA-18">
          <mxGeometry y="130" width="238" height="26" as="geometry" />
        </mxCell>
        <mxCell id="HBgZYf5v92plN2gd6lQA-24" value="&lt;div style=&quot;line-height: 19px;&quot;&gt;&lt;font style=&quot;&quot; color=&quot;#0000ff&quot;&gt;&lt;font face=&quot;Consolas, Courier New, monospace&quot;&gt;&lt;span style=&quot;font-size: 14px; white-space: pre;&quot;&gt;+ tel_per: IntegerField &lt;/span&gt;&lt;/font&gt;&lt;/font&gt;&lt;/div&gt;" style="text;strokeColor=#0e8088;fillColor=#b0e3e6;align=left;verticalAlign=top;spacingLeft=4;spacingRight=4;overflow=hidden;rotatable=0;points=[[0,0.5],[1,0.5]];portConstraint=eastwest;whiteSpace=wrap;html=1;" vertex="1" parent="HBgZYf5v92plN2gd6lQA-18">
          <mxGeometry y="156" width="238" height="26" as="geometry" />
        </mxCell>
        <mxCell id="HBgZYf5v92plN2gd6lQA-25" value="&lt;div style=&quot;line-height: 19px;&quot;&gt;&lt;div style=&quot;line-height: 19px;&quot;&gt;&lt;font style=&quot;font-family: Consolas, &amp;quot;Courier New&amp;quot;, monospace; font-size: 14px; white-space: pre;&quot; color=&quot;#0000ff&quot;&gt;+ &lt;/font&gt;&lt;span style=&quot;background-color: initial; font-size: 14px; white-space: pre;&quot;&gt;&lt;font face=&quot;Consolas, Courier New, monospace&quot; color=&quot;#0000ff&quot;&gt;email_per: EmailField&lt;/font&gt;&lt;/span&gt;&lt;/div&gt;&lt;/div&gt;" style="text;strokeColor=#0e8088;fillColor=#b0e3e6;align=left;verticalAlign=top;spacingLeft=4;spacingRight=4;overflow=hidden;rotatable=0;points=[[0,0.5],[1,0.5]];portConstraint=eastwest;whiteSpace=wrap;html=1;" vertex="1" parent="HBgZYf5v92plN2gd6lQA-18">
          <mxGeometry y="182" width="238" height="26" as="geometry" />
        </mxCell>
        <mxCell id="IO97pGm5Q4sqgZwQervl-44" value="&lt;div style=&quot;line-height: 19px;&quot;&gt;&lt;div style=&quot;line-height: 19px;&quot;&gt;&lt;font style=&quot;font-family: Consolas, &amp;quot;Courier New&amp;quot;, monospace; font-size: 14px; white-space: pre;&quot; color=&quot;#0000ff&quot;&gt;+ dir&lt;/font&gt;&lt;span style=&quot;background-color: initial; font-size: 14px; white-space: pre;&quot;&gt;&lt;font face=&quot;Consolas, Courier New, monospace&quot; color=&quot;#0000ff&quot;&gt;_per: charField&lt;/font&gt;&lt;/span&gt;&lt;/div&gt;&lt;/div&gt;" style="text;strokeColor=#0e8088;fillColor=#b0e3e6;align=left;verticalAlign=top;spacingLeft=4;spacingRight=4;overflow=hidden;rotatable=0;points=[[0,0.5],[1,0.5]];portConstraint=eastwest;whiteSpace=wrap;html=1;" vertex="1" parent="HBgZYf5v92plN2gd6lQA-18">
          <mxGeometry y="208" width="238" height="26" as="geometry" />
        </mxCell>
        <mxCell id="HBgZYf5v92plN2gd6lQA-27" value="&lt;div style=&quot;line-height: 19px;&quot;&gt;&lt;div style=&quot;line-height: 19px;&quot;&gt;&lt;font style=&quot;font-family: Consolas, &amp;quot;Courier New&amp;quot;, monospace; font-size: 14px; white-space: pre;&quot; color=&quot;#0000ff&quot;&gt;+ &lt;/font&gt;&lt;span style=&quot;background-color: initial; font-size: 14px; white-space: pre;&quot;&gt;&lt;font face=&quot;Consolas, Courier New, monospace&quot; color=&quot;#0000ff&quot;&gt;sex_per: IntegerField&lt;/font&gt;&lt;/span&gt;&lt;/div&gt;&lt;/div&gt;" style="text;strokeColor=#0e8088;fillColor=#b0e3e6;align=left;verticalAlign=top;spacingLeft=4;spacingRight=4;overflow=hidden;rotatable=0;points=[[0,0.5],[1,0.5]];portConstraint=eastwest;whiteSpace=wrap;html=1;" vertex="1" parent="HBgZYf5v92plN2gd6lQA-18">
          <mxGeometry y="234" width="238" height="26" as="geometry" />
        </mxCell>
        <mxCell id="IO97pGm5Q4sqgZwQervl-42" value="&lt;div style=&quot;line-height: 19px;&quot;&gt;&lt;div style=&quot;line-height: 19px;&quot;&gt;&lt;font color=&quot;#007fff&quot;&gt;&lt;font style=&quot;font-family: Consolas, &amp;quot;Courier New&amp;quot;, monospace; font-size: 14px; white-space: pre;&quot;&gt;+ fk_via&lt;/font&gt;&lt;span style=&quot;background-color: initial; font-size: 14px; white-space: pre;&quot;&gt;&lt;font style=&quot;&quot; face=&quot;Consolas, Courier New, monospace&quot;&gt;: ForeignKey&lt;/font&gt;&lt;/span&gt;&lt;/font&gt;&lt;/div&gt;&lt;/div&gt;" style="text;strokeColor=#9673a6;fillColor=#e1d5e7;align=left;verticalAlign=top;spacingLeft=4;spacingRight=4;overflow=hidden;rotatable=0;points=[[0,0.5],[1,0.5]];portConstraint=eastwest;whiteSpace=wrap;html=1;" vertex="1" parent="HBgZYf5v92plN2gd6lQA-18">
          <mxGeometry y="260" width="238" height="26" as="geometry" />
        </mxCell>
        <mxCell id="IO97pGm5Q4sqgZwQervl-45" value="&lt;div style=&quot;line-height: 19px;&quot;&gt;&lt;div style=&quot;line-height: 19px;&quot;&gt;&lt;font color=&quot;#007fff&quot;&gt;&lt;font style=&quot;font-family: Consolas, &amp;quot;Courier New&amp;quot;, monospace; font-size: 14px; white-space: pre;&quot;&gt;+ fk_pro&lt;/font&gt;&lt;span style=&quot;background-color: initial; font-size: 14px; white-space: pre;&quot;&gt;&lt;font style=&quot;&quot; face=&quot;Consolas, Courier New, monospace&quot;&gt;: ForeignKey&lt;/font&gt;&lt;/span&gt;&lt;/font&gt;&lt;/div&gt;&lt;/div&gt;" style="text;align=left;verticalAlign=top;spacingLeft=4;spacingRight=4;overflow=hidden;rotatable=0;points=[[0,0.5],[1,0.5]];portConstraint=eastwest;whiteSpace=wrap;html=1;fillColor=#f5f5f5;strokeColor=#666666;gradientColor=#b3b3b3;" vertex="1" parent="HBgZYf5v92plN2gd6lQA-18">
          <mxGeometry y="286" width="238" height="26" as="geometry" />
        </mxCell>
        <mxCell id="IO97pGm5Q4sqgZwQervl-46" value="&lt;div style=&quot;line-height: 19px;&quot;&gt;&lt;div style=&quot;line-height: 19px;&quot;&gt;&lt;font color=&quot;#007fff&quot;&gt;&lt;font style=&quot;font-family: Consolas, &amp;quot;Courier New&amp;quot;, monospace; font-size: 14px; white-space: pre;&quot;&gt;+ fk_num&lt;/font&gt;&lt;span style=&quot;background-color: initial; font-size: 14px; white-space: pre;&quot;&gt;&lt;font style=&quot;&quot; face=&quot;Consolas, Courier New, monospace&quot;&gt;: ForeignKey&lt;/font&gt;&lt;/span&gt;&lt;/font&gt;&lt;/div&gt;&lt;/div&gt;" style="text;strokeColor=#36393d;fillColor=#cce5ff;align=left;verticalAlign=top;spacingLeft=4;spacingRight=4;overflow=hidden;rotatable=0;points=[[0,0.5],[1,0.5]];portConstraint=eastwest;whiteSpace=wrap;html=1;" vertex="1" parent="HBgZYf5v92plN2gd6lQA-18">
          <mxGeometry y="312" width="238" height="26" as="geometry" />
        </mxCell>
        <mxCell id="HBgZYf5v92plN2gd6lQA-28" value="&lt;div style=&quot;line-height: 19px;&quot;&gt;&lt;div style=&quot;line-height: 19px;&quot;&gt;&lt;font style=&quot;font-family: Consolas, &amp;quot;Courier New&amp;quot;, monospace; font-size: 14px; white-space: pre;&quot; color=&quot;#0000ff&quot;&gt;+ &lt;/font&gt;&lt;span style=&quot;background-color: initial; font-size: 14px; white-space: pre;&quot;&gt;&lt;font face=&quot;Consolas, Courier New, monospace&quot; color=&quot;#0000ff&quot;&gt;uso_datos_per: BooleanField&lt;/font&gt;&lt;/span&gt;&lt;/div&gt;&lt;/div&gt;" style="text;strokeColor=#ae4132;fillColor=#fad9d5;align=left;verticalAlign=top;spacingLeft=4;spacingRight=4;overflow=hidden;rotatable=0;points=[[0,0.5],[1,0.5]];portConstraint=eastwest;whiteSpace=wrap;html=1;" vertex="1" parent="HBgZYf5v92plN2gd6lQA-18">
          <mxGeometry y="338" width="238" height="26" as="geometry" />
        </mxCell>
        <mxCell id="HBgZYf5v92plN2gd6lQA-29" value="&lt;div style=&quot;line-height: 19px;&quot;&gt;&lt;font style=&quot;font-family: Consolas, &amp;quot;Courier New&amp;quot;, monospace; font-size: 14px; white-space: pre;&quot; color=&quot;#0000ff&quot;&gt;+ &lt;/font&gt;&lt;span style=&quot;background-color: initial; font-size: 14px; white-space: pre;&quot;&gt;&lt;font face=&quot;Consolas, Courier New, monospace&quot; color=&quot;#0000ff&quot;&gt;term_per: BooleanField&lt;/font&gt;&lt;/span&gt;&lt;/div&gt;" style="text;strokeColor=#ae4132;fillColor=#fad9d5;align=left;verticalAlign=top;spacingLeft=4;spacingRight=4;overflow=hidden;rotatable=0;points=[[0,0.5],[1,0.5]];portConstraint=eastwest;whiteSpace=wrap;html=1;" vertex="1" parent="HBgZYf5v92plN2gd6lQA-18">
          <mxGeometry y="364" width="238" height="26" as="geometry" />
        </mxCell>
        <mxCell id="HBgZYf5v92plN2gd6lQA-30" value="&lt;div style=&quot;line-height: 19px;&quot;&gt;&lt;div style=&quot;line-height: 19px;&quot;&gt;&lt;font style=&quot;font-family: Consolas, &amp;quot;Courier New&amp;quot;, monospace; font-size: 14px; white-space: pre;&quot; color=&quot;#0000ff&quot;&gt;+ &lt;/font&gt;&lt;span style=&quot;background-color: initial; font-size: 14px; white-space: pre;&quot;&gt;&lt;font face=&quot;Consolas, Courier New, monospace&quot; color=&quot;#0000ff&quot;&gt;noti_per: BooleanField&lt;/font&gt;&lt;/span&gt;&lt;/div&gt;&lt;/div&gt;" style="text;strokeColor=#ae4132;fillColor=#fad9d5;align=left;verticalAlign=top;spacingLeft=4;spacingRight=4;overflow=hidden;rotatable=0;points=[[0,0.5],[1,0.5]];portConstraint=eastwest;whiteSpace=wrap;html=1;" vertex="1" parent="HBgZYf5v92plN2gd6lQA-18">
          <mxGeometry y="390" width="238" height="26" as="geometry" />
        </mxCell>
        <mxCell id="HBgZYf5v92plN2gd6lQA-32" value="&lt;div style=&quot;color: rgb(204, 204, 204); font-family: Consolas, &amp;quot;Courier New&amp;quot;, monospace; font-size: 14px; line-height: 19px; white-space: pre;&quot;&gt;&lt;span style=&quot;color: rgb(106, 153, 85);&quot;&gt;Info_Prof&lt;/span&gt;&lt;/div&gt;" style="swimlane;fontStyle=0;childLayout=stackLayout;horizontal=1;startSize=26;fillColor=none;horizontalStack=0;resizeParent=1;resizeParentMax=0;resizeLast=0;collapsible=1;marginBottom=0;whiteSpace=wrap;html=1;" vertex="1" parent="1">
          <mxGeometry x="177" y="622" width="300" height="510" as="geometry" />
        </mxCell>
        <mxCell id="HBgZYf5v92plN2gd6lQA-33" value="&lt;font color=&quot;#ff8000&quot;&gt;&lt;span style=&quot;font-family: Consolas, &amp;quot;Courier New&amp;quot;, monospace; font-size: 14px; white-space: pre;&quot;&gt;+ &lt;/span&gt;&lt;font face=&quot;Consolas, Courier New, monospace&quot;&gt;&lt;span style=&quot;font-size: 14px; white-space: pre;&quot;&gt;pk_inf_pro:SmallAuto&lt;/span&gt;&lt;span style=&quot;white-space: pre; font-size: 16px;&quot;&gt;Field&lt;/span&gt;&lt;/font&gt;&lt;/font&gt;" style="text;strokeColor=none;fillColor=none;align=left;verticalAlign=top;spacingLeft=4;spacingRight=4;overflow=hidden;rotatable=0;points=[[0,0.5],[1,0.5]];portConstraint=eastwest;whiteSpace=wrap;html=1;" vertex="1" parent="HBgZYf5v92plN2gd6lQA-32">
          <mxGeometry y="26" width="300" height="26" as="geometry" />
        </mxCell>
        <mxCell id="HBgZYf5v92plN2gd6lQA-35" value="&lt;span style=&quot;font-family: Consolas, &amp;quot;Courier New&amp;quot;, monospace; font-size: 14px; white-space: pre;&quot;&gt;&lt;font color=&quot;#0000ff&quot;&gt;+ &lt;/font&gt;&lt;/span&gt;&lt;font face=&quot;Consolas, Courier New, monospace&quot; color=&quot;#0000ff&quot;&gt;&lt;span style=&quot;font-size: 14px; white-space: pre;&quot;&gt;tit_inf_pro:IntegerField&lt;/span&gt;&lt;/font&gt;" style="text;strokeColor=none;fillColor=none;align=left;verticalAlign=top;spacingLeft=4;spacingRight=4;overflow=hidden;rotatable=0;points=[[0,0.5],[1,0.5]];portConstraint=eastwest;whiteSpace=wrap;html=1;" vertex="1" parent="HBgZYf5v92plN2gd6lQA-32">
          <mxGeometry y="52" width="300" height="26" as="geometry" />
        </mxCell>
        <mxCell id="HBgZYf5v92plN2gd6lQA-36" value="&lt;font color=&quot;#0000ff&quot;&gt;&lt;span style=&quot;font-family: Consolas, &amp;quot;Courier New&amp;quot;, monospace; font-size: 14px; white-space: pre;&quot;&gt;+ &lt;/span&gt;&lt;/font&gt;&lt;font face=&quot;Consolas, Courier New, monospace&quot; color=&quot;#0000ff&quot;&gt;&lt;span style=&quot;font-size: 14px; white-space: pre;&quot;&gt;tit_esp_inf_pro:Charfield (15)&lt;/span&gt;&lt;/font&gt;" style="text;strokeColor=none;fillColor=none;align=left;verticalAlign=top;spacingLeft=4;spacingRight=4;overflow=hidden;rotatable=0;points=[[0,0.5],[1,0.5]];portConstraint=eastwest;whiteSpace=wrap;html=1;" vertex="1" parent="HBgZYf5v92plN2gd6lQA-32">
          <mxGeometry y="78" width="300" height="26" as="geometry" />
        </mxCell>
        <mxCell id="HBgZYf5v92plN2gd6lQA-37" value="&lt;div style=&quot;line-height: 19px;&quot;&gt;&lt;font style=&quot;&quot; color=&quot;#0000ff&quot;&gt;&lt;font face=&quot;Consolas, Courier New, monospace&quot;&gt;&lt;span style=&quot;font-size: 14px; white-space: pre;&quot;&gt;+ esp_inf_pro: Charfield (15)&lt;/span&gt;&lt;/font&gt;&lt;/font&gt;&lt;/div&gt;" style="text;strokeColor=none;fillColor=none;align=left;verticalAlign=top;spacingLeft=4;spacingRight=4;overflow=hidden;rotatable=0;points=[[0,0.5],[1,0.5]];portConstraint=eastwest;whiteSpace=wrap;html=1;" vertex="1" parent="HBgZYf5v92plN2gd6lQA-32">
          <mxGeometry y="104" width="300" height="26" as="geometry" />
        </mxCell>
        <mxCell id="HBgZYf5v92plN2gd6lQA-38" value="&lt;div style=&quot;line-height: 19px;&quot;&gt;&lt;font style=&quot;&quot; color=&quot;#0000ff&quot;&gt;&lt;font face=&quot;Consolas, Courier New, monospace&quot;&gt;&lt;span style=&quot;font-size: 14px; white-space: pre;&quot;&gt;+ exp_inf_pro: &lt;/span&gt;&lt;/font&gt;&lt;/font&gt;&lt;font style=&quot;&quot; color=&quot;#0000ff&quot;&gt;&lt;font face=&quot;Consolas, Courier New, monospace&quot;&gt;&lt;span style=&quot;font-size: 14px; white-space: pre;&quot;&gt;IntegerField&lt;/span&gt;&lt;/font&gt;&lt;/font&gt;&lt;/div&gt;" style="text;strokeColor=none;fillColor=none;align=left;verticalAlign=top;spacingLeft=4;spacingRight=4;overflow=hidden;rotatable=0;points=[[0,0.5],[1,0.5]];portConstraint=eastwest;whiteSpace=wrap;html=1;" vertex="1" parent="HBgZYf5v92plN2gd6lQA-32">
          <mxGeometry y="130" width="300" height="30" as="geometry" />
        </mxCell>
        <mxCell id="RT8RiOXo6vbGIULghEf0-1" value="&lt;div style=&quot;line-height: 19px;&quot;&gt;&lt;font style=&quot;&quot; color=&quot;#0000ff&quot;&gt;&lt;font face=&quot;Consolas, Courier New, monospace&quot;&gt;&lt;span style=&quot;font-size: 14px; white-space: pre;&quot;&gt;+ for_imp_inf_pro: IntegerField&lt;/span&gt;&lt;/font&gt;&lt;/font&gt;&lt;/div&gt;" style="text;strokeColor=#82b366;fillColor=#d5e8d4;align=left;verticalAlign=top;spacingLeft=4;spacingRight=4;overflow=hidden;rotatable=0;points=[[0,0.5],[1,0.5]];portConstraint=eastwest;whiteSpace=wrap;html=1;" vertex="1" parent="HBgZYf5v92plN2gd6lQA-32">
          <mxGeometry y="160" width="300" height="30" as="geometry" />
        </mxCell>
        <mxCell id="HBgZYf5v92plN2gd6lQA-39" value="&lt;div style=&quot;line-height: 19px;&quot;&gt;&lt;font style=&quot;&quot; color=&quot;#0000ff&quot;&gt;&lt;font face=&quot;Consolas, Courier New, monospace&quot;&gt;&lt;span style=&quot;font-size: 14px; white-space: pre;&quot;&gt;+ cv_adj_inf_pro: FileField&lt;/span&gt;&lt;/font&gt;&lt;/font&gt;&lt;/div&gt;" style="text;strokeColor=none;fillColor=none;align=left;verticalAlign=top;spacingLeft=4;spacingRight=4;overflow=hidden;rotatable=0;points=[[0,0.5],[1,0.5]];portConstraint=eastwest;whiteSpace=wrap;html=1;" vertex="1" parent="HBgZYf5v92plN2gd6lQA-32">
          <mxGeometry y="190" width="300" height="26" as="geometry" />
        </mxCell>
        <mxCell id="HBgZYf5v92plN2gd6lQA-40" value="&lt;div style=&quot;line-height: 19px;&quot;&gt;&lt;div style=&quot;line-height: 19px;&quot;&gt;&lt;font style=&quot;font-family: Consolas, &amp;quot;Courier New&amp;quot;, monospace; font-size: 14px; white-space: pre;&quot; color=&quot;#0000ff&quot;&gt;+ &lt;/font&gt;&lt;span style=&quot;background-color: initial; font-size: 14px; white-space: pre;&quot;&gt;&lt;font face=&quot;Consolas, Courier New, monospace&quot; color=&quot;#0000ff&quot;&gt;mod_inf_pro: &lt;/font&gt;&lt;/span&gt;&lt;span style=&quot;background-color: initial; font-size: 14px; white-space: pre;&quot;&gt;&lt;font face=&quot;Consolas, Courier New, monospace&quot; color=&quot;#0000ff&quot;&gt;&lt;/font&gt;&lt;/span&gt;&lt;font style=&quot;&quot; color=&quot;#0000ff&quot;&gt;&lt;font face=&quot;Consolas, Courier New, monospace&quot;&gt;&lt;span style=&quot;font-size: 14px; white-space: pre;&quot;&gt;&lt;/span&gt;&lt;/font&gt;&lt;/font&gt;&lt;font style=&quot;&quot; color=&quot;#0000ff&quot;&gt;&lt;font face=&quot;Consolas, Courier New, monospace&quot;&gt;&lt;span style=&quot;font-size: 14px; white-space: pre;&quot;&gt;IntegerField&lt;/span&gt;&lt;/font&gt;&lt;/font&gt;&lt;/div&gt;&lt;/div&gt;" style="text;align=left;verticalAlign=top;spacingLeft=4;spacingRight=4;overflow=hidden;rotatable=0;points=[[0,0.5],[1,0.5]];portConstraint=eastwest;whiteSpace=wrap;html=1;" vertex="1" parent="HBgZYf5v92plN2gd6lQA-32">
          <mxGeometry y="216" width="300" height="26" as="geometry" />
        </mxCell>
        <mxCell id="HBgZYf5v92plN2gd6lQA-41" value="&lt;div style=&quot;line-height: 19px;&quot;&gt;&lt;div style=&quot;line-height: 19px;&quot;&gt;&lt;font style=&quot;font-family: Consolas, &amp;quot;Courier New&amp;quot;, monospace; font-size: 14px; white-space: pre;&quot; color=&quot;#0000ff&quot;&gt;+ &lt;/font&gt;&lt;span style=&quot;background-color: initial; font-size: 14px; white-space: pre;&quot;&gt;&lt;font face=&quot;Consolas, Courier New, monospace&quot; color=&quot;#0000ff&quot;&gt;tipo_alu_inf_pro: &lt;/font&gt;&lt;/span&gt;&lt;span style=&quot;background-color: initial; font-size: 14px; white-space: pre;&quot;&gt;&lt;font face=&quot;Consolas, Courier New, monospace&quot; color=&quot;#0000ff&quot;&gt;&lt;/font&gt;&lt;/span&gt;&lt;font style=&quot;&quot; color=&quot;#0000ff&quot;&gt;&lt;font face=&quot;Consolas, Courier New, monospace&quot;&gt;&lt;span style=&quot;font-size: 14px; white-space: pre;&quot;&gt;&lt;/span&gt;&lt;/font&gt;&lt;/font&gt;&lt;font style=&quot;&quot; color=&quot;#0000ff&quot;&gt;&lt;font face=&quot;Consolas, Courier New, monospace&quot;&gt;&lt;span style=&quot;font-size: 14px; white-space: pre;&quot;&gt;IntegerField&lt;/span&gt;&lt;/font&gt;&lt;/font&gt;&lt;/div&gt;&lt;/div&gt;" style="text;align=left;verticalAlign=top;spacingLeft=4;spacingRight=4;overflow=hidden;rotatable=0;points=[[0,0.5],[1,0.5]];portConstraint=eastwest;whiteSpace=wrap;html=1;" vertex="1" parent="HBgZYf5v92plN2gd6lQA-32">
          <mxGeometry y="242" width="300" height="26" as="geometry" />
        </mxCell>
        <mxCell id="HBgZYf5v92plN2gd6lQA-42" value="&lt;div style=&quot;line-height: 19px;&quot;&gt;&lt;div style=&quot;line-height: 19px;&quot;&gt;&lt;font style=&quot;font-family: Consolas, &amp;quot;Courier New&amp;quot;, monospace; font-size: 14px; white-space: pre;&quot; color=&quot;#0000ff&quot;&gt;+ &lt;/font&gt;&lt;span style=&quot;background-color: initial; font-size: 14px; white-space: pre;&quot;&gt;&lt;font face=&quot;Consolas, Courier New, monospace&quot; color=&quot;#0000ff&quot;&gt;tipo_alu_esp_inf_pro: Charfield (15)&lt;/font&gt;&lt;/span&gt;&lt;/div&gt;&lt;/div&gt;" style="text;align=left;verticalAlign=top;spacingLeft=4;spacingRight=4;overflow=hidden;rotatable=0;points=[[0,0.5],[1,0.5]];portConstraint=eastwest;whiteSpace=wrap;html=1;" vertex="1" parent="HBgZYf5v92plN2gd6lQA-32">
          <mxGeometry y="268" width="300" height="26" as="geometry" />
        </mxCell>
        <mxCell id="HBgZYf5v92plN2gd6lQA-43" value="&lt;div style=&quot;line-height: 19px;&quot;&gt;&lt;div style=&quot;line-height: 19px;&quot;&gt;&lt;font style=&quot;font-family: Consolas, &amp;quot;Courier New&amp;quot;, monospace; font-size: 14px; white-space: pre;&quot; color=&quot;#0000ff&quot;&gt;+ &lt;/font&gt;&lt;span style=&quot;background-color: initial; font-size: 14px; white-space: pre;&quot;&gt;&lt;font face=&quot;Consolas, Courier New, monospace&quot; color=&quot;#0000ff&quot;&gt;franja_inf_pro: &lt;/font&gt;&lt;/span&gt;&lt;span style=&quot;background-color: initial; font-size: 14px; white-space: pre;&quot;&gt;&lt;font face=&quot;Consolas, Courier New, monospace&quot; color=&quot;#0000ff&quot;&gt;&lt;/font&gt;&lt;/span&gt;&lt;font style=&quot;&quot; color=&quot;#0000ff&quot;&gt;&lt;font face=&quot;Consolas, Courier New, monospace&quot;&gt;&lt;span style=&quot;font-size: 14px; white-space: pre;&quot;&gt;&lt;/span&gt;&lt;/font&gt;&lt;/font&gt;&lt;font style=&quot;&quot; color=&quot;#0000ff&quot;&gt;&lt;font face=&quot;Consolas, Courier New, monospace&quot;&gt;&lt;span style=&quot;font-size: 14px; white-space: pre;&quot;&gt;IntegerField&lt;/span&gt;&lt;/font&gt;&lt;/font&gt;&lt;/div&gt;&lt;/div&gt;" style="text;align=left;verticalAlign=top;spacingLeft=4;spacingRight=4;overflow=hidden;rotatable=0;points=[[0,0.5],[1,0.5]];portConstraint=eastwest;whiteSpace=wrap;html=1;" vertex="1" parent="HBgZYf5v92plN2gd6lQA-32">
          <mxGeometry y="294" width="300" height="26" as="geometry" />
        </mxCell>
        <mxCell id="HBgZYf5v92plN2gd6lQA-44" value="&lt;div style=&quot;line-height: 19px;&quot;&gt;&lt;font style=&quot;font-family: Consolas, &amp;quot;Courier New&amp;quot;, monospace; font-size: 14px; white-space: pre;&quot; color=&quot;#0000ff&quot;&gt;+ &lt;/font&gt;&lt;span style=&quot;background-color: initial; font-size: 14px; white-space: pre;&quot;&gt;&lt;font face=&quot;Consolas, Courier New, monospace&quot; color=&quot;#0000ff&quot;&gt;cert_inf_pro: &lt;/font&gt;&lt;/span&gt;&lt;font style=&quot;&quot; color=&quot;#0000ff&quot;&gt;&lt;font face=&quot;Consolas, Courier New, monospace&quot;&gt;&lt;span style=&quot;font-size: 14px; white-space: pre;&quot;&gt;&lt;/span&gt;&lt;/font&gt;&lt;/font&gt;&lt;font style=&quot;&quot; color=&quot;#0000ff&quot;&gt;&lt;font face=&quot;Consolas, Courier New, monospace&quot;&gt;&lt;span style=&quot;font-size: 14px; white-space: pre;&quot;&gt;IntegerField&lt;/span&gt;&lt;/font&gt;&lt;/font&gt;&lt;/div&gt;" style="text;strokeColor=none;fillColor=none;align=left;verticalAlign=top;spacingLeft=4;spacingRight=4;overflow=hidden;rotatable=0;points=[[0,0.5],[1,0.5]];portConstraint=eastwest;whiteSpace=wrap;html=1;" vertex="1" parent="HBgZYf5v92plN2gd6lQA-32">
          <mxGeometry y="320" width="300" height="26" as="geometry" />
        </mxCell>
        <mxCell id="HBgZYf5v92plN2gd6lQA-45" value="&lt;div style=&quot;line-height: 19px;&quot;&gt;&lt;div style=&quot;line-height: 19px;&quot;&gt;&lt;font style=&quot;font-family: Consolas, &amp;quot;Courier New&amp;quot;, monospace; font-size: 14px; white-space: pre;&quot; color=&quot;#0000ff&quot;&gt;+ &lt;/font&gt;&lt;span style=&quot;background-color: initial; font-size: 14px; white-space: pre;&quot;&gt;&lt;font face=&quot;Consolas, Courier New, monospace&quot; color=&quot;#0000ff&quot;&gt;cert_esp_inf_pro: Charfield (15)&lt;/font&gt;&lt;/span&gt;&lt;/div&gt;&lt;/div&gt;" style="text;strokeColor=none;fillColor=none;align=left;verticalAlign=top;spacingLeft=4;spacingRight=4;overflow=hidden;rotatable=0;points=[[0,0.5],[1,0.5]];portConstraint=eastwest;whiteSpace=wrap;html=1;" vertex="1" parent="HBgZYf5v92plN2gd6lQA-32">
          <mxGeometry y="346" width="300" height="26" as="geometry" />
        </mxCell>
        <mxCell id="HBgZYf5v92plN2gd6lQA-46" value="&lt;div style=&quot;line-height: 19px;&quot;&gt;&lt;div style=&quot;line-height: 19px;&quot;&gt;&lt;font style=&quot;font-family: Consolas, &amp;quot;Courier New&amp;quot;, monospace; font-size: 14px; white-space: pre;&quot; color=&quot;#0000ff&quot;&gt;+ &lt;/font&gt;&lt;span style=&quot;background-color: initial; font-size: 14px; white-space: pre;&quot;&gt;&lt;font face=&quot;Consolas, Courier New, monospace&quot; color=&quot;#0000ff&quot;&gt;herr_inf_pro: &lt;/font&gt;&lt;/span&gt;&lt;span style=&quot;background-color: initial; font-size: 14px; white-space: pre;&quot;&gt;&lt;font face=&quot;Consolas, Courier New, monospace&quot; color=&quot;#0000ff&quot;&gt;&lt;/font&gt;&lt;/span&gt;&lt;font style=&quot;&quot; color=&quot;#0000ff&quot;&gt;&lt;font face=&quot;Consolas, Courier New, monospace&quot;&gt;&lt;span style=&quot;font-size: 14px; white-space: pre;&quot;&gt;&lt;/span&gt;&lt;/font&gt;&lt;/font&gt;&lt;font style=&quot;&quot; color=&quot;#0000ff&quot;&gt;&lt;font face=&quot;Consolas, Courier New, monospace&quot;&gt;&lt;span style=&quot;font-size: 14px; white-space: pre;&quot;&gt;IntegerField&lt;/span&gt;&lt;/font&gt;&lt;/font&gt;&lt;/div&gt;&lt;/div&gt;" style="text;strokeColor=none;fillColor=none;align=left;verticalAlign=top;spacingLeft=4;spacingRight=4;overflow=hidden;rotatable=0;points=[[0,0.5],[1,0.5]];portConstraint=eastwest;whiteSpace=wrap;html=1;" vertex="1" parent="HBgZYf5v92plN2gd6lQA-32">
          <mxGeometry y="372" width="300" height="26" as="geometry" />
        </mxCell>
        <mxCell id="HBgZYf5v92plN2gd6lQA-47" value="&lt;div style=&quot;line-height: 19px;&quot;&gt;&lt;div style=&quot;line-height: 19px;&quot;&gt;&lt;font style=&quot;font-family: Consolas, &amp;quot;Courier New&amp;quot;, monospace; font-size: 14px; white-space: pre;&quot; color=&quot;#0000ff&quot;&gt;+ &lt;/font&gt;&lt;span style=&quot;background-color: initial; font-size: 14px; white-space: pre;&quot;&gt;&lt;font face=&quot;Consolas, Courier New, monospace&quot; color=&quot;#0000ff&quot;&gt;herr_esp_inf_pro: Charfield (15)&lt;/font&gt;&lt;/span&gt;&lt;/div&gt;&lt;/div&gt;" style="text;strokeColor=none;fillColor=none;align=left;verticalAlign=top;spacingLeft=4;spacingRight=4;overflow=hidden;rotatable=0;points=[[0,0.5],[1,0.5]];portConstraint=eastwest;whiteSpace=wrap;html=1;" vertex="1" parent="HBgZYf5v92plN2gd6lQA-32">
          <mxGeometry y="398" width="300" height="26" as="geometry" />
        </mxCell>
        <mxCell id="HBgZYf5v92plN2gd6lQA-48" value="&lt;div style=&quot;line-height: 19px;&quot;&gt;&lt;div style=&quot;line-height: 19px;&quot;&gt;&lt;font style=&quot;font-family: Consolas, &amp;quot;Courier New&amp;quot;, monospace; font-size: 14px; white-space: pre;&quot; color=&quot;#0000ff&quot;&gt;+ &lt;/font&gt;&lt;span style=&quot;background-color: initial; font-size: 14px; white-space: pre;&quot;&gt;&lt;font face=&quot;Consolas, Courier New, monospace&quot; color=&quot;#0000ff&quot;&gt;comp_dig_inf_pro: &lt;/font&gt;&lt;/span&gt;&lt;span style=&quot;background-color: initial; font-size: 14px; white-space: pre;&quot;&gt;&lt;font face=&quot;Consolas, Courier New, monospace&quot; color=&quot;#0000ff&quot;&gt;&lt;/font&gt;&lt;/span&gt;&lt;font style=&quot;&quot; color=&quot;#0000ff&quot;&gt;&lt;font face=&quot;Consolas, Courier New, monospace&quot;&gt;&lt;span style=&quot;font-size: 14px; white-space: pre;&quot;&gt;&lt;/span&gt;&lt;/font&gt;&lt;/font&gt;&lt;font style=&quot;&quot; color=&quot;#0000ff&quot;&gt;&lt;font face=&quot;Consolas, Courier New, monospace&quot;&gt;&lt;span style=&quot;font-size: 14px; white-space: pre;&quot;&gt;IntegerField&lt;/span&gt;&lt;/font&gt;&lt;/font&gt;&lt;/div&gt;&lt;/div&gt;" style="text;strokeColor=none;fillColor=none;align=left;verticalAlign=top;spacingLeft=4;spacingRight=4;overflow=hidden;rotatable=0;points=[[0,0.5],[1,0.5]];portConstraint=eastwest;whiteSpace=wrap;html=1;" vertex="1" parent="HBgZYf5v92plN2gd6lQA-32">
          <mxGeometry y="424" width="300" height="26" as="geometry" />
        </mxCell>
        <mxCell id="HBgZYf5v92plN2gd6lQA-49" value="&lt;div style=&quot;line-height: 19px;&quot;&gt;&lt;div style=&quot;line-height: 19px;&quot;&gt;&lt;font face=&quot;Consolas, Courier New, monospace&quot; color=&quot;#0000ff&quot;&gt;&lt;span style=&quot;font-size: 14px; white-space: pre;&quot;&gt;+ comp_dig_esp_inf_pro: Charfield (15)&lt;/span&gt;&lt;/font&gt;&lt;/div&gt;&lt;/div&gt;" style="text;strokeColor=none;fillColor=none;align=left;verticalAlign=top;spacingLeft=4;spacingRight=4;overflow=hidden;rotatable=0;points=[[0,0.5],[1,0.5]];portConstraint=eastwest;whiteSpace=wrap;html=1;" vertex="1" parent="HBgZYf5v92plN2gd6lQA-32">
          <mxGeometry y="450" width="300" height="26" as="geometry" />
        </mxCell>
        <mxCell id="HBgZYf5v92plN2gd6lQA-50" value="&lt;div style=&quot;line-height: 19px;&quot;&gt;&lt;div style=&quot;line-height: 19px;&quot;&gt;&lt;font color=&quot;#007fff&quot; face=&quot;Consolas, Courier New, monospace&quot;&gt;&lt;span style=&quot;font-size: 14px; white-space: pre;&quot;&gt;+ fk_per_inf_pro: ForeignKey&lt;/span&gt;&lt;/font&gt;&lt;/div&gt;&lt;/div&gt;" style="text;strokeColor=#0e8088;fillColor=#b0e3e6;align=left;verticalAlign=top;spacingLeft=4;spacingRight=4;overflow=hidden;rotatable=0;points=[[0,0.5],[1,0.5]];portConstraint=eastwest;whiteSpace=wrap;html=1;" vertex="1" parent="HBgZYf5v92plN2gd6lQA-32">
          <mxGeometry y="476" width="300" height="34" as="geometry" />
        </mxCell>
        <mxCell id="aGTaD-MYSE5JKAAEdn8e-1" style="edgeStyle=orthogonalEdgeStyle;rounded=0;orthogonalLoop=1;jettySize=auto;html=1;exitX=0;exitY=0.5;exitDx=0;exitDy=0;entryX=1;entryY=0.5;entryDx=0;entryDy=0;" edge="1" parent="1" source="HBgZYf5v92plN2gd6lQA-50" target="HBgZYf5v92plN2gd6lQA-19">
          <mxGeometry relative="1" as="geometry">
            <mxPoint x="85" y="1209" as="targetPoint" />
          </mxGeometry>
        </mxCell>
        <mxCell id="wtTf2INtjH9rt9ekIBQD-8" value="&lt;div style=&quot;font-family: Consolas, &amp;quot;Courier New&amp;quot;, monospace; font-size: 14px; line-height: 19px; white-space: pre;&quot;&gt;Comarca&lt;/div&gt;" style="swimlane;fontStyle=0;childLayout=stackLayout;horizontal=1;startSize=26;fillColor=#ffcccc;horizontalStack=0;resizeParent=1;resizeParentMax=0;resizeLast=0;collapsible=1;marginBottom=0;whiteSpace=wrap;html=1;strokeColor=#36393d;" vertex="1" parent="1">
          <mxGeometry x="-705" y="1334" width="210" height="78" as="geometry" />
        </mxCell>
        <mxCell id="wtTf2INtjH9rt9ekIBQD-9" value="&lt;span style=&quot;font-family: Consolas, &amp;quot;Courier New&amp;quot;, monospace; font-size: 14px; white-space: pre;&quot;&gt;&lt;font color=&quot;#0000ff&quot;&gt;+ pk_com: SmallAutoField&lt;/font&gt;&lt;/span&gt;" style="text;strokeColor=#36393d;fillColor=#ffcccc;align=left;verticalAlign=top;spacingLeft=4;spacingRight=4;overflow=hidden;rotatable=0;points=[[0,0.5],[1,0.5]];portConstraint=eastwest;whiteSpace=wrap;html=1;" vertex="1" parent="wtTf2INtjH9rt9ekIBQD-8">
          <mxGeometry y="26" width="210" height="26" as="geometry" />
        </mxCell>
        <mxCell id="wtTf2INtjH9rt9ekIBQD-10" value="&lt;span style=&quot;font-family: Consolas, &amp;quot;Courier New&amp;quot;, monospace; font-size: 14px; white-space: pre;&quot;&gt;&lt;font color=&quot;#0000ff&quot;&gt;+ nom_com: Charfield (30)&lt;/font&gt;&lt;/span&gt;" style="text;strokeColor=#36393d;fillColor=#ffcccc;align=left;verticalAlign=top;spacingLeft=4;spacingRight=4;overflow=hidden;rotatable=0;points=[[0,0.5],[1,0.5]];portConstraint=eastwest;whiteSpace=wrap;html=1;" vertex="1" parent="wtTf2INtjH9rt9ekIBQD-8">
          <mxGeometry y="52" width="210" height="26" as="geometry" />
        </mxCell>
        <mxCell id="wtTf2INtjH9rt9ekIBQD-25" value="&lt;div style=&quot;font-family: Consolas, &amp;quot;Courier New&amp;quot;, monospace; font-size: 14px; line-height: 19px; white-space: pre;&quot;&gt;&lt;font color=&quot;#6a9955&quot;&gt;Provincias&lt;/font&gt;&lt;/div&gt;" style="swimlane;fontStyle=0;childLayout=stackLayout;horizontal=1;startSize=26;fillColor=#f5f5f5;horizontalStack=0;resizeParent=1;resizeParentMax=0;resizeLast=0;collapsible=1;marginBottom=0;whiteSpace=wrap;html=1;gradientColor=#b3b3b3;strokeColor=#666666;" vertex="1" parent="1">
          <mxGeometry x="-452.5" y="797" width="205" height="78" as="geometry" />
        </mxCell>
        <mxCell id="wtTf2INtjH9rt9ekIBQD-26" value="&lt;span style=&quot;font-family: Consolas, &amp;quot;Courier New&amp;quot;, monospace; font-size: 14px; white-space: pre;&quot;&gt;&lt;font color=&quot;#0000ff&quot;&gt;+ pk_pro: &lt;/font&gt;&lt;/span&gt;&lt;span style=&quot;font-family: Consolas, &amp;quot;Courier New&amp;quot;, monospace; font-size: 14px; white-space: pre;&quot;&gt;&lt;font color=&quot;#0000ff&quot;&gt;SmallAutoField&lt;/font&gt;&lt;/span&gt;" style="text;strokeColor=#666666;fillColor=#f5f5f5;align=left;verticalAlign=top;spacingLeft=4;spacingRight=4;overflow=hidden;rotatable=0;points=[[0,0.5],[1,0.5]];portConstraint=eastwest;whiteSpace=wrap;html=1;gradientColor=#b3b3b3;" vertex="1" parent="wtTf2INtjH9rt9ekIBQD-25">
          <mxGeometry y="26" width="205" height="26" as="geometry" />
        </mxCell>
        <mxCell id="wtTf2INtjH9rt9ekIBQD-27" value="&lt;span style=&quot;font-family: Consolas, &amp;quot;Courier New&amp;quot;, monospace; font-size: 14px; white-space: pre;&quot;&gt;&lt;font color=&quot;#0000ff&quot;&gt;+ nom_pro: Charfield (30)&lt;/font&gt;&lt;/span&gt;" style="text;strokeColor=#666666;fillColor=#f5f5f5;align=left;verticalAlign=top;spacingLeft=4;spacingRight=4;overflow=hidden;rotatable=0;points=[[0,0.5],[1,0.5]];portConstraint=eastwest;whiteSpace=wrap;html=1;gradientColor=#b3b3b3;" vertex="1" parent="wtTf2INtjH9rt9ekIBQD-25">
          <mxGeometry y="52" width="205" height="26" as="geometry" />
        </mxCell>
        <mxCell id="wtTf2INtjH9rt9ekIBQD-42" value="&lt;div style=&quot;color: rgb(204, 204, 204); font-family: Consolas, &amp;quot;Courier New&amp;quot;, monospace; font-size: 14px; line-height: 19px; white-space: pre;&quot;&gt;&lt;span style=&quot;color: rgb(106, 153, 85);&quot;&gt;Comarca_provincias&lt;/span&gt;&lt;/div&gt;" style="swimlane;fontStyle=0;childLayout=stackLayout;horizontal=1;startSize=26;fillColor=#b0e3e6;horizontalStack=0;resizeParent=1;resizeParentMax=0;resizeLast=0;collapsible=1;marginBottom=0;whiteSpace=wrap;html=1;strokeColor=#0e8088;" vertex="1" parent="1">
          <mxGeometry x="-705" y="1132" width="188" height="104" as="geometry" />
        </mxCell>
        <mxCell id="wtTf2INtjH9rt9ekIBQD-43" value="&lt;span style=&quot;font-family: Consolas, &amp;quot;Courier New&amp;quot;, monospace; font-size: 14px; white-space: pre;&quot;&gt;&lt;font color=&quot;#0000ff&quot;&gt;+ pk_com: &lt;/font&gt;&lt;/span&gt;&lt;span style=&quot;font-family: Consolas, &amp;quot;Courier New&amp;quot;, monospace; font-size: 14px; white-space: pre;&quot;&gt;&lt;font color=&quot;#0000ff&quot;&gt;SmallAutoField&lt;/font&gt;&lt;/span&gt;" style="text;strokeColor=#0e8088;fillColor=#b0e3e6;align=left;verticalAlign=top;spacingLeft=4;spacingRight=4;overflow=hidden;rotatable=0;points=[[0,0.5],[1,0.5]];portConstraint=eastwest;whiteSpace=wrap;html=1;" vertex="1" parent="wtTf2INtjH9rt9ekIBQD-42">
          <mxGeometry y="26" width="188" height="26" as="geometry" />
        </mxCell>
        <mxCell id="wtTf2INtjH9rt9ekIBQD-45" value="&lt;span style=&quot;font-family: Consolas, &amp;quot;Courier New&amp;quot;, monospace; font-size: 14px; white-space: pre;&quot;&gt;&lt;font color=&quot;#0000ff&quot;&gt;+ fk_com: int&lt;/font&gt;&lt;/span&gt;" style="text;strokeColor=#36393d;fillColor=#ffcccc;align=left;verticalAlign=top;spacingLeft=4;spacingRight=4;overflow=hidden;rotatable=0;points=[[0,0.5],[1,0.5]];portConstraint=eastwest;whiteSpace=wrap;html=1;" vertex="1" parent="wtTf2INtjH9rt9ekIBQD-42">
          <mxGeometry y="52" width="188" height="26" as="geometry" />
        </mxCell>
        <mxCell id="wtTf2INtjH9rt9ekIBQD-44" value="&lt;span style=&quot;font-family: Consolas, &amp;quot;Courier New&amp;quot;, monospace; font-size: 14px; white-space: pre;&quot;&gt;&lt;font color=&quot;#0000ff&quot;&gt;+ fk_pro: int&lt;/font&gt;&lt;/span&gt;" style="text;strokeColor=#666666;fillColor=#f5f5f5;align=left;verticalAlign=top;spacingLeft=4;spacingRight=4;overflow=hidden;rotatable=0;points=[[0,0.5],[1,0.5]];portConstraint=eastwest;whiteSpace=wrap;html=1;gradientColor=#b3b3b3;" vertex="1" parent="wtTf2INtjH9rt9ekIBQD-42">
          <mxGeometry y="78" width="188" height="26" as="geometry" />
        </mxCell>
        <mxCell id="wtTf2INtjH9rt9ekIBQD-52" value="&lt;div style=&quot;color: rgb(204, 204, 204); font-family: Consolas, &amp;quot;Courier New&amp;quot;, monospace; font-size: 14px; line-height: 19px; white-space: pre;&quot;&gt;&lt;span style=&quot;color: rgb(106, 153, 85);&quot;&gt;usuario&lt;/span&gt;&lt;/div&gt;" style="swimlane;fontStyle=0;childLayout=stackLayout;horizontal=1;startSize=26;fillColor=none;horizontalStack=0;resizeParent=1;resizeParentMax=0;resizeLast=0;collapsible=1;marginBottom=0;whiteSpace=wrap;html=1;" vertex="1" parent="1">
          <mxGeometry x="-350" y="3090" width="188" height="104" as="geometry" />
        </mxCell>
        <mxCell id="wtTf2INtjH9rt9ekIBQD-53" value="&lt;span style=&quot;font-family: Consolas, &amp;quot;Courier New&amp;quot;, monospace; font-size: 14px; white-space: pre;&quot;&gt;&lt;font color=&quot;#0000ff&quot;&gt;+ pk_com: &lt;/font&gt;&lt;/span&gt;&lt;span style=&quot;font-family: Consolas, &amp;quot;Courier New&amp;quot;, monospace; font-size: 14px; white-space: pre;&quot;&gt;&lt;font color=&quot;#0000ff&quot;&gt;SmallAutoField&lt;/font&gt;&lt;/span&gt;" style="text;strokeColor=none;fillColor=none;align=left;verticalAlign=top;spacingLeft=4;spacingRight=4;overflow=hidden;rotatable=0;points=[[0,0.5],[1,0.5]];portConstraint=eastwest;whiteSpace=wrap;html=1;" vertex="1" parent="wtTf2INtjH9rt9ekIBQD-52">
          <mxGeometry y="26" width="188" height="26" as="geometry" />
        </mxCell>
        <mxCell id="wtTf2INtjH9rt9ekIBQD-54" value="&lt;span style=&quot;font-family: Consolas, &amp;quot;Courier New&amp;quot;, monospace; font-size: 14px; white-space: pre;&quot;&gt;&lt;font color=&quot;#0000ff&quot;&gt;+ log_usu: int&lt;/font&gt;&lt;/span&gt;" style="text;strokeColor=none;fillColor=none;align=left;verticalAlign=top;spacingLeft=4;spacingRight=4;overflow=hidden;rotatable=0;points=[[0,0.5],[1,0.5]];portConstraint=eastwest;whiteSpace=wrap;html=1;" vertex="1" parent="wtTf2INtjH9rt9ekIBQD-52">
          <mxGeometry y="52" width="188" height="26" as="geometry" />
        </mxCell>
        <mxCell id="wtTf2INtjH9rt9ekIBQD-55" value="&lt;span style=&quot;font-family: Consolas, &amp;quot;Courier New&amp;quot;, monospace; font-size: 14px; white-space: pre;&quot;&gt;&lt;font color=&quot;#0000ff&quot;&gt;+ Key_usu: int&lt;/font&gt;&lt;/span&gt;" style="text;strokeColor=none;fillColor=none;align=left;verticalAlign=top;spacingLeft=4;spacingRight=4;overflow=hidden;rotatable=0;points=[[0,0.5],[1,0.5]];portConstraint=eastwest;whiteSpace=wrap;html=1;" vertex="1" parent="wtTf2INtjH9rt9ekIBQD-52">
          <mxGeometry y="78" width="188" height="26" as="geometry" />
        </mxCell>
        <mxCell id="wtTf2INtjH9rt9ekIBQD-56" value="&lt;div style=&quot;line-height: 19px;&quot;&gt;&lt;font face=&quot;Consolas, Courier New, monospace&quot; color=&quot;#6a9955&quot;&gt;&lt;span style=&quot;font-size: 14px; white-space: pre;&quot;&gt;municipios&lt;/span&gt;&lt;/font&gt;&lt;/div&gt;" style="swimlane;fontStyle=0;childLayout=stackLayout;horizontal=1;startSize=26;fillColor=#cce5ff;horizontalStack=0;resizeParent=1;resizeParentMax=0;resizeLast=0;collapsible=1;marginBottom=0;whiteSpace=wrap;html=1;strokeColor=#36393d;" vertex="1" parent="1">
          <mxGeometry x="-423" y="979" width="205" height="104" as="geometry" />
        </mxCell>
        <mxCell id="wtTf2INtjH9rt9ekIBQD-57" value="&lt;span style=&quot;font-family: Consolas, &amp;quot;Courier New&amp;quot;, monospace; font-size: 14px; white-space: pre;&quot;&gt;&lt;font color=&quot;#0000ff&quot;&gt;+ pk_mun: &lt;/font&gt;&lt;/span&gt;&lt;span style=&quot;font-family: Consolas, &amp;quot;Courier New&amp;quot;, monospace; font-size: 14px; white-space: pre;&quot;&gt;&lt;font color=&quot;#0000ff&quot;&gt;SmallAutoField&lt;/font&gt;&lt;/span&gt;" style="text;strokeColor=#36393d;fillColor=#cce5ff;align=left;verticalAlign=top;spacingLeft=4;spacingRight=4;overflow=hidden;rotatable=0;points=[[0,0.5],[1,0.5]];portConstraint=eastwest;whiteSpace=wrap;html=1;" vertex="1" parent="wtTf2INtjH9rt9ekIBQD-56">
          <mxGeometry y="26" width="205" height="26" as="geometry" />
        </mxCell>
        <mxCell id="wtTf2INtjH9rt9ekIBQD-58" value="&lt;span style=&quot;font-family: Consolas, &amp;quot;Courier New&amp;quot;, monospace; font-size: 14px; white-space: pre;&quot;&gt;&lt;font color=&quot;#0000ff&quot;&gt;+ nom_mun: Charfield (30)&lt;/font&gt;&lt;/span&gt;" style="text;strokeColor=#36393d;fillColor=#cce5ff;align=left;verticalAlign=top;spacingLeft=4;spacingRight=4;overflow=hidden;rotatable=0;points=[[0,0.5],[1,0.5]];portConstraint=eastwest;whiteSpace=wrap;html=1;" vertex="1" parent="wtTf2INtjH9rt9ekIBQD-56">
          <mxGeometry y="52" width="205" height="26" as="geometry" />
        </mxCell>
        <mxCell id="wtTf2INtjH9rt9ekIBQD-59" value="&lt;span style=&quot;color: rgb(0, 0, 255); font-family: Consolas, &amp;quot;Courier New&amp;quot;, monospace; font-size: 14px; white-space: pre;&quot;&gt;+ fk_com: int&lt;/span&gt;" style="text;strokeColor=#36393d;fillColor=#ffcccc;align=left;verticalAlign=top;spacingLeft=4;spacingRight=4;overflow=hidden;rotatable=0;points=[[0,0.5],[1,0.5]];portConstraint=eastwest;whiteSpace=wrap;html=1;" vertex="1" parent="wtTf2INtjH9rt9ekIBQD-56">
          <mxGeometry y="78" width="205" height="26" as="geometry" />
        </mxCell>
        <mxCell id="wtTf2INtjH9rt9ekIBQD-62" style="edgeStyle=orthogonalEdgeStyle;rounded=0;orthogonalLoop=1;jettySize=auto;html=1;exitX=0;exitY=0.5;exitDx=0;exitDy=0;entryX=1;entryY=0.5;entryDx=0;entryDy=0;" edge="1" parent="1" source="wtTf2INtjH9rt9ekIBQD-26" target="wtTf2INtjH9rt9ekIBQD-44">
          <mxGeometry relative="1" as="geometry" />
        </mxCell>
        <mxCell id="wtTf2INtjH9rt9ekIBQD-64" value="&lt;span style=&quot;text-align: left;&quot;&gt;&quot;171962&quot;,&quot;Terrades&quot;,&quot;02&quot;&lt;/span&gt;&lt;br style=&quot;text-align: left;&quot;&gt;&lt;span style=&quot;text-align: left;&quot;&gt;&quot;171962&quot;,&quot;Terrades&quot;,&quot;03&quot;&lt;/span&gt;" style="shape=callout;whiteSpace=wrap;html=1;perimeter=calloutPerimeter;" vertex="1" parent="1">
          <mxGeometry x="-410" y="903" width="165" height="70" as="geometry" />
        </mxCell>
        <mxCell id="wtTf2INtjH9rt9ekIBQD-66" value="&lt;div style=&quot;line-height: 19px;&quot;&gt;&lt;font face=&quot;Consolas, Courier New, monospace&quot; color=&quot;#6a9955&quot;&gt;&lt;span style=&quot;font-size: 14px; white-space: pre;&quot;&gt;Direccion&lt;/span&gt;&lt;/font&gt;&lt;/div&gt;" style="swimlane;fontStyle=0;childLayout=stackLayout;horizontal=1;startSize=26;fillColor=none;horizontalStack=0;resizeParent=1;resizeParentMax=0;resizeLast=0;collapsible=1;marginBottom=0;whiteSpace=wrap;html=1;" vertex="1" parent="1">
          <mxGeometry x="460" y="2324" width="257.5" height="338" as="geometry" />
        </mxCell>
        <mxCell id="wtTf2INtjH9rt9ekIBQD-67" value="&lt;span style=&quot;font-family: Consolas, &amp;quot;Courier New&amp;quot;, monospace; font-size: 14px; white-space: pre;&quot;&gt;&lt;font color=&quot;#ff8000&quot;&gt;+ pk_dir: charField(20)&lt;/font&gt;&lt;/span&gt;" style="text;strokeColor=none;fillColor=none;align=left;verticalAlign=top;spacingLeft=4;spacingRight=4;overflow=hidden;rotatable=0;points=[[0,0.5],[1,0.5]];portConstraint=eastwest;whiteSpace=wrap;html=1;" vertex="1" parent="wtTf2INtjH9rt9ekIBQD-66">
          <mxGeometry y="26" width="257.5" height="26" as="geometry" />
        </mxCell>
        <mxCell id="wtTf2INtjH9rt9ekIBQD-70" value="&lt;span style=&quot;font-family: Consolas, &amp;quot;Courier New&amp;quot;, monospace; font-size: 14px; white-space: pre;&quot;&gt;&lt;font color=&quot;#0000ff&quot;&gt;+ numero_dir: charField(20)&lt;/font&gt;&lt;/span&gt;" style="text;strokeColor=none;fillColor=none;align=left;verticalAlign=top;spacingLeft=4;spacingRight=4;overflow=hidden;rotatable=0;points=[[0,0.5],[1,0.5]];portConstraint=eastwest;whiteSpace=wrap;html=1;" vertex="1" parent="wtTf2INtjH9rt9ekIBQD-66">
          <mxGeometry y="52" width="257.5" height="26" as="geometry" />
        </mxCell>
        <mxCell id="wtTf2INtjH9rt9ekIBQD-68" value="&lt;span style=&quot;font-family: Consolas, &amp;quot;Courier New&amp;quot;, monospace; font-size: 14px; white-space: pre;&quot;&gt;&lt;font color=&quot;#0000ff&quot;&gt;+ bloque_dir: Charfield (44)&lt;/font&gt;&lt;/span&gt;" style="text;strokeColor=none;fillColor=none;align=left;verticalAlign=top;spacingLeft=4;spacingRight=4;overflow=hidden;rotatable=0;points=[[0,0.5],[1,0.5]];portConstraint=eastwest;whiteSpace=wrap;html=1;" vertex="1" parent="wtTf2INtjH9rt9ekIBQD-66">
          <mxGeometry y="78" width="257.5" height="26" as="geometry" />
        </mxCell>
        <mxCell id="wtTf2INtjH9rt9ekIBQD-71" value="&lt;span style=&quot;font-family: Consolas, &amp;quot;Courier New&amp;quot;, monospace; font-size: 14px; white-space: pre;&quot;&gt;&lt;font color=&quot;#0000ff&quot;&gt;+ portal_dir: charField(20)&lt;/font&gt;&lt;/span&gt;" style="text;strokeColor=none;fillColor=none;align=left;verticalAlign=top;spacingLeft=4;spacingRight=4;overflow=hidden;rotatable=0;points=[[0,0.5],[1,0.5]];portConstraint=eastwest;whiteSpace=wrap;html=1;" vertex="1" parent="wtTf2INtjH9rt9ekIBQD-66">
          <mxGeometry y="104" width="257.5" height="26" as="geometry" />
        </mxCell>
        <mxCell id="wtTf2INtjH9rt9ekIBQD-73" value="&lt;span style=&quot;font-family: Consolas, &amp;quot;Courier New&amp;quot;, monospace; font-size: 14px; white-space: pre;&quot;&gt;&lt;font color=&quot;#0000ff&quot;&gt;+ escalera_dir: charField(20)&lt;/font&gt;&lt;/span&gt;" style="text;strokeColor=none;fillColor=none;align=left;verticalAlign=top;spacingLeft=4;spacingRight=4;overflow=hidden;rotatable=0;points=[[0,0.5],[1,0.5]];portConstraint=eastwest;whiteSpace=wrap;html=1;" vertex="1" parent="wtTf2INtjH9rt9ekIBQD-66">
          <mxGeometry y="130" width="257.5" height="26" as="geometry" />
        </mxCell>
        <mxCell id="wtTf2INtjH9rt9ekIBQD-72" value="&lt;span style=&quot;font-family: Consolas, &amp;quot;Courier New&amp;quot;, monospace; font-size: 14px; white-space: pre;&quot;&gt;&lt;font color=&quot;#0000ff&quot;&gt;+ planta_dir: charField(20)&lt;/font&gt;&lt;/span&gt;" style="text;strokeColor=none;fillColor=none;align=left;verticalAlign=top;spacingLeft=4;spacingRight=4;overflow=hidden;rotatable=0;points=[[0,0.5],[1,0.5]];portConstraint=eastwest;whiteSpace=wrap;html=1;" vertex="1" parent="wtTf2INtjH9rt9ekIBQD-66">
          <mxGeometry y="156" width="257.5" height="26" as="geometry" />
        </mxCell>
        <mxCell id="wtTf2INtjH9rt9ekIBQD-75" value="&lt;span style=&quot;font-family: Consolas, &amp;quot;Courier New&amp;quot;, monospace; font-size: 14px; white-space: pre;&quot;&gt;&lt;font color=&quot;#0000ff&quot;&gt;+ puerta_dir: charField(20)&lt;/font&gt;&lt;/span&gt;" style="text;strokeColor=none;fillColor=none;align=left;verticalAlign=top;spacingLeft=4;spacingRight=4;overflow=hidden;rotatable=0;points=[[0,0.5],[1,0.5]];portConstraint=eastwest;whiteSpace=wrap;html=1;" vertex="1" parent="wtTf2INtjH9rt9ekIBQD-66">
          <mxGeometry y="182" width="257.5" height="26" as="geometry" />
        </mxCell>
        <mxCell id="wtTf2INtjH9rt9ekIBQD-74" value="&lt;span style=&quot;font-family: Consolas, &amp;quot;Courier New&amp;quot;, monospace; font-size: 14px; white-space: pre;&quot;&gt;&lt;font color=&quot;#0000ff&quot;&gt;+ cp_dir: charField(20)&lt;/font&gt;&lt;/span&gt;" style="text;strokeColor=none;fillColor=none;align=left;verticalAlign=top;spacingLeft=4;spacingRight=4;overflow=hidden;rotatable=0;points=[[0,0.5],[1,0.5]];portConstraint=eastwest;whiteSpace=wrap;html=1;" vertex="1" parent="wtTf2INtjH9rt9ekIBQD-66">
          <mxGeometry y="208" width="257.5" height="26" as="geometry" />
        </mxCell>
        <mxCell id="wtTf2INtjH9rt9ekIBQD-76" value="&lt;span style=&quot;font-family: Consolas, &amp;quot;Courier New&amp;quot;, monospace; font-size: 14px; white-space: pre;&quot;&gt;&lt;font color=&quot;#0000ff&quot;&gt;+ numsuperior_dir: charField(20)&lt;/font&gt;&lt;/span&gt;" style="text;strokeColor=none;fillColor=none;align=left;verticalAlign=top;spacingLeft=4;spacingRight=4;overflow=hidden;rotatable=0;points=[[0,0.5],[1,0.5]];portConstraint=eastwest;whiteSpace=wrap;html=1;" vertex="1" parent="wtTf2INtjH9rt9ekIBQD-66">
          <mxGeometry y="234" width="257.5" height="26" as="geometry" />
        </mxCell>
        <mxCell id="wtTf2INtjH9rt9ekIBQD-78" value="&lt;span style=&quot;font-family: Consolas, &amp;quot;Courier New&amp;quot;, monospace; font-size: 14px; white-space: pre;&quot;&gt;&lt;font color=&quot;#0000ff&quot;&gt;+ kilometro_dir: charField(20)&lt;/font&gt;&lt;/span&gt;" style="text;strokeColor=none;fillColor=none;align=left;verticalAlign=top;spacingLeft=4;spacingRight=4;overflow=hidden;rotatable=0;points=[[0,0.5],[1,0.5]];portConstraint=eastwest;whiteSpace=wrap;html=1;" vertex="1" parent="wtTf2INtjH9rt9ekIBQD-66">
          <mxGeometry y="260" width="257.5" height="26" as="geometry" />
        </mxCell>
        <mxCell id="wtTf2INtjH9rt9ekIBQD-77" value="&lt;span style=&quot;font-family: Consolas, &amp;quot;Courier New&amp;quot;, monospace; font-size: 14px; white-space: pre;&quot;&gt;&lt;font color=&quot;#0000ff&quot;&gt;+ hectometro_dir: charField(20)&lt;/font&gt;&lt;/span&gt;" style="text;strokeColor=none;fillColor=none;align=left;verticalAlign=top;spacingLeft=4;spacingRight=4;overflow=hidden;rotatable=0;points=[[0,0.5],[1,0.5]];portConstraint=eastwest;whiteSpace=wrap;html=1;" vertex="1" parent="wtTf2INtjH9rt9ekIBQD-66">
          <mxGeometry y="286" width="257.5" height="26" as="geometry" />
        </mxCell>
        <mxCell id="wtTf2INtjH9rt9ekIBQD-69" value="&lt;span style=&quot;color: rgb(0, 0, 255); font-family: Consolas, &amp;quot;Courier New&amp;quot;, monospace; font-size: 14px; white-space: pre;&quot;&gt;+ fk_com: int&lt;/span&gt;" style="text;strokeColor=none;fillColor=none;align=left;verticalAlign=top;spacingLeft=4;spacingRight=4;overflow=hidden;rotatable=0;points=[[0,0.5],[1,0.5]];portConstraint=eastwest;whiteSpace=wrap;html=1;" vertex="1" parent="wtTf2INtjH9rt9ekIBQD-66">
          <mxGeometry y="312" width="257.5" height="26" as="geometry" />
        </mxCell>
        <mxCell id="ml8h5qtQgVTARjYE0Izq-1" style="edgeStyle=orthogonalEdgeStyle;rounded=0;orthogonalLoop=1;jettySize=auto;html=1;exitX=1;exitY=0.5;exitDx=0;exitDy=0;entryX=0;entryY=0.5;entryDx=0;entryDy=0;" edge="1" parent="1" source="BZVooQixpb7APMNi6qxB-66" target="BZVooQixpb7APMNi6qxB-63">
          <mxGeometry relative="1" as="geometry" />
        </mxCell>
        <mxCell id="pkAi6QiWiLod5w94hNvr-3" value="&lt;div style=&quot;color: rgb(204, 204, 204); font-family: Consolas, &amp;quot;Courier New&amp;quot;, monospace; font-size: 14px; line-height: 19px; white-space: pre;&quot;&gt;&lt;span style=&quot;color: rgb(106, 153, 85);&quot;&gt;Info_Estu&lt;/span&gt;&lt;/div&gt;" style="swimlane;fontStyle=0;childLayout=stackLayout;horizontal=1;startSize=26;fillColor=none;horizontalStack=0;resizeParent=1;resizeParentMax=0;resizeLast=0;collapsible=1;marginBottom=0;whiteSpace=wrap;html=1;" vertex="1" parent="1">
          <mxGeometry x="177" y="315" width="300" height="280" as="geometry" />
        </mxCell>
        <mxCell id="pkAi6QiWiLod5w94hNvr-4" value="&lt;font color=&quot;#ff8000&quot;&gt;&lt;span style=&quot;font-family: Consolas, &amp;quot;Courier New&amp;quot;, monospace; font-size: 14px; white-space: pre;&quot;&gt;+ &lt;/span&gt;&lt;font face=&quot;Consolas, Courier New, monospace&quot;&gt;&lt;span style=&quot;font-size: 14px; white-space: pre;&quot;&gt;pk_inf_est:SmallAuto&lt;/span&gt;&lt;span style=&quot;white-space: pre; font-size: 16px;&quot;&gt;Field&lt;/span&gt;&lt;/font&gt;&lt;/font&gt;" style="text;strokeColor=none;fillColor=none;align=left;verticalAlign=top;spacingLeft=4;spacingRight=4;overflow=hidden;rotatable=0;points=[[0,0.5],[1,0.5]];portConstraint=eastwest;whiteSpace=wrap;html=1;" vertex="1" parent="pkAi6QiWiLod5w94hNvr-3">
          <mxGeometry y="26" width="300" height="26" as="geometry" />
        </mxCell>
        <mxCell id="pkAi6QiWiLod5w94hNvr-6" value="&lt;font color=&quot;#0000ff&quot;&gt;&lt;span style=&quot;font-family: Consolas, &amp;quot;Courier New&amp;quot;, monospace; font-size: 14px; white-space: pre;&quot;&gt;+ int_form_inf_est&lt;/span&gt;&lt;/font&gt;&lt;font face=&quot;Consolas, Courier New, monospace&quot; color=&quot;#0000ff&quot;&gt;&lt;span style=&quot;font-size: 14px; white-space: pre;&quot;&gt;:Charfield (15)&lt;/span&gt;&lt;/font&gt;" style="text;strokeColor=none;fillColor=none;align=left;verticalAlign=top;spacingLeft=4;spacingRight=4;overflow=hidden;rotatable=0;points=[[0,0.5],[1,0.5]];portConstraint=eastwest;whiteSpace=wrap;html=1;" vertex="1" parent="pkAi6QiWiLod5w94hNvr-3">
          <mxGeometry y="52" width="300" height="26" as="geometry" />
        </mxCell>
        <mxCell id="pkAi6QiWiLod5w94hNvr-7" value="&lt;div style=&quot;line-height: 19px;&quot;&gt;&lt;font style=&quot;&quot; color=&quot;#0000ff&quot;&gt;&lt;font face=&quot;Consolas, Courier New, monospace&quot;&gt;&lt;span style=&quot;font-size: 14px; white-space: pre;&quot;&gt;+ que_que_est: Charfield (15)&lt;/span&gt;&lt;/font&gt;&lt;/font&gt;&lt;/div&gt;" style="text;strokeColor=none;fillColor=none;align=left;verticalAlign=top;spacingLeft=4;spacingRight=4;overflow=hidden;rotatable=0;points=[[0,0.5],[1,0.5]];portConstraint=eastwest;whiteSpace=wrap;html=1;" vertex="1" parent="pkAi6QiWiLod5w94hNvr-3">
          <mxGeometry y="78" width="300" height="26" as="geometry" />
        </mxCell>
        <mxCell id="pkAi6QiWiLod5w94hNvr-22" value="&lt;div style=&quot;line-height: 19px;&quot;&gt;&lt;font style=&quot;&quot; color=&quot;#0000ff&quot;&gt;&lt;font face=&quot;Consolas, Courier New, monospace&quot;&gt;&lt;span style=&quot;font-size: 14px; white-space: pre;&quot;&gt;+ &lt;/span&gt;&lt;/font&gt;&lt;/font&gt;&lt;span style=&quot;color: rgb(0, 0, 255); font-family: Consolas, &amp;quot;Courier New&amp;quot;, monospace; font-size: 14px; white-space: pre; background-color: initial;&quot;&gt;que_has_est: Charfield (15)&lt;/span&gt;&lt;/div&gt;" style="text;strokeColor=none;fillColor=none;align=left;verticalAlign=top;spacingLeft=4;spacingRight=4;overflow=hidden;rotatable=0;points=[[0,0.5],[1,0.5]];portConstraint=eastwest;whiteSpace=wrap;html=1;" vertex="1" parent="pkAi6QiWiLod5w94hNvr-3">
          <mxGeometry y="104" width="300" height="30" as="geometry" />
        </mxCell>
        <mxCell id="pkAi6QiWiLod5w94hNvr-8" value="&lt;div style=&quot;line-height: 19px;&quot;&gt;&lt;font style=&quot;&quot; color=&quot;#0000ff&quot;&gt;&lt;font face=&quot;Consolas, Courier New, monospace&quot;&gt;&lt;span style=&quot;font-size: 14px; white-space: pre;&quot;&gt;+ de_&lt;/span&gt;&lt;/font&gt;&lt;/font&gt;&lt;span style=&quot;color: rgb(0, 0, 255); font-family: Consolas, &amp;quot;Courier New&amp;quot;, monospace; font-size: 14px; white-space: pre; background-color: initial;&quot;&gt;que_han_trab: Charfield (15)&lt;/span&gt;&lt;/div&gt;" style="text;strokeColor=none;fillColor=none;align=left;verticalAlign=top;spacingLeft=4;spacingRight=4;overflow=hidden;rotatable=0;points=[[0,0.5],[1,0.5]];portConstraint=eastwest;whiteSpace=wrap;html=1;" vertex="1" parent="pkAi6QiWiLod5w94hNvr-3">
          <mxGeometry y="134" width="300" height="30" as="geometry" />
        </mxCell>
        <mxCell id="pkAi6QiWiLod5w94hNvr-23" value="&lt;div style=&quot;line-height: 19px;&quot;&gt;&lt;font style=&quot;&quot; color=&quot;#0000ff&quot;&gt;&lt;font face=&quot;Consolas, Courier New, monospace&quot;&gt;&lt;span style=&quot;font-size: 14px; white-space: pre;&quot;&gt;+ de_&lt;/span&gt;&lt;/font&gt;&lt;/font&gt;&lt;span style=&quot;color: rgb(0, 0, 255); font-family: Consolas, &amp;quot;Courier New&amp;quot;, monospace; font-size: 14px; white-space: pre; background-color: initial;&quot;&gt;que_que_trab: Charfield (15)&lt;/span&gt;&lt;/div&gt;" style="text;strokeColor=none;fillColor=none;align=left;verticalAlign=top;spacingLeft=4;spacingRight=4;overflow=hidden;rotatable=0;points=[[0,0.5],[1,0.5]];portConstraint=eastwest;whiteSpace=wrap;html=1;" vertex="1" parent="pkAi6QiWiLod5w94hNvr-3">
          <mxGeometry y="164" width="300" height="30" as="geometry" />
        </mxCell>
        <mxCell id="pkAi6QiWiLod5w94hNvr-17" value="&lt;div style=&quot;line-height: 19px;&quot;&gt;&lt;div style=&quot;line-height: 19px;&quot;&gt;&lt;font style=&quot;font-family: Consolas, &amp;quot;Courier New&amp;quot;, monospace; font-size: 14px; white-space: pre;&quot; color=&quot;#0000ff&quot;&gt;+ &lt;/font&gt;&lt;span style=&quot;background-color: initial; font-size: 14px; white-space: pre;&quot;&gt;&lt;font face=&quot;Consolas, Courier New, monospace&quot; color=&quot;#0000ff&quot;&gt;rang_sal_des: float(2)&lt;/font&gt;&lt;/span&gt;&lt;/div&gt;&lt;/div&gt;" style="text;strokeColor=none;fillColor=none;align=left;verticalAlign=top;spacingLeft=4;spacingRight=4;overflow=hidden;rotatable=0;points=[[0,0.5],[1,0.5]];portConstraint=eastwest;whiteSpace=wrap;html=1;" vertex="1" parent="pkAi6QiWiLod5w94hNvr-3">
          <mxGeometry y="194" width="300" height="26" as="geometry" />
        </mxCell>
        <mxCell id="pkAi6QiWiLod5w94hNvr-10" value="&lt;div style=&quot;line-height: 19px;&quot;&gt;&lt;font style=&quot;&quot; color=&quot;#0000ff&quot;&gt;&lt;font face=&quot;Consolas, Courier New, monospace&quot;&gt;&lt;span style=&quot;font-size: 14px; white-space: pre;&quot;&gt;+ cv_adj_inf_est: FileField&lt;/span&gt;&lt;/font&gt;&lt;/font&gt;&lt;/div&gt;" style="text;strokeColor=none;fillColor=none;align=left;verticalAlign=top;spacingLeft=4;spacingRight=4;overflow=hidden;rotatable=0;points=[[0,0.5],[1,0.5]];portConstraint=eastwest;whiteSpace=wrap;html=1;" vertex="1" parent="pkAi6QiWiLod5w94hNvr-3">
          <mxGeometry y="220" width="300" height="26" as="geometry" />
        </mxCell>
        <mxCell id="pkAi6QiWiLod5w94hNvr-21" value="&lt;div style=&quot;line-height: 19px;&quot;&gt;&lt;div style=&quot;line-height: 19px;&quot;&gt;&lt;font color=&quot;#007fff&quot; face=&quot;Consolas, Courier New, monospace&quot;&gt;&lt;span style=&quot;font-size: 14px; white-space: pre;&quot;&gt;+ fk_per_inf_est: ForeignKey&lt;/span&gt;&lt;/font&gt;&lt;/div&gt;&lt;/div&gt;" style="text;strokeColor=none;fillColor=none;align=left;verticalAlign=top;spacingLeft=4;spacingRight=4;overflow=hidden;rotatable=0;points=[[0,0.5],[1,0.5]];portConstraint=eastwest;whiteSpace=wrap;html=1;" vertex="1" parent="pkAi6QiWiLod5w94hNvr-3">
          <mxGeometry y="246" width="300" height="34" as="geometry" />
        </mxCell>
        <mxCell id="pkAi6QiWiLod5w94hNvr-24" style="edgeStyle=orthogonalEdgeStyle;rounded=0;orthogonalLoop=1;jettySize=auto;html=1;exitX=0;exitY=0.5;exitDx=0;exitDy=0;entryX=1;entryY=0.5;entryDx=0;entryDy=0;" edge="1" parent="1" source="pkAi6QiWiLod5w94hNvr-21" target="HBgZYf5v92plN2gd6lQA-19">
          <mxGeometry relative="1" as="geometry" />
        </mxCell>
        <mxCell id="pkAi6QiWiLod5w94hNvr-25" value="&lt;div style=&quot;color: rgb(204, 204, 204); font-family: Consolas, &amp;quot;Courier New&amp;quot;, monospace; font-size: 14px; line-height: 19px; white-space: pre;&quot;&gt;&lt;span style=&quot;color: rgb(106, 153, 85);&quot;&gt;Rol_usuario&lt;/span&gt;&lt;/div&gt;" style="swimlane;fontStyle=0;childLayout=stackLayout;horizontal=1;startSize=26;fillColor=none;horizontalStack=0;resizeParent=1;resizeParentMax=0;resizeLast=0;collapsible=1;marginBottom=0;whiteSpace=wrap;html=1;" vertex="1" parent="1">
          <mxGeometry x="-97" y="355" width="188" height="104" as="geometry" />
        </mxCell>
        <mxCell id="pkAi6QiWiLod5w94hNvr-26" value="&lt;span style=&quot;font-family: Consolas, &amp;quot;Courier New&amp;quot;, monospace; font-size: 14px; white-space: pre;&quot;&gt;&lt;font color=&quot;#0000ff&quot;&gt;+ pk_rol_user:&lt;/font&gt;&lt;/span&gt;" style="text;strokeColor=none;fillColor=none;align=left;verticalAlign=top;spacingLeft=4;spacingRight=4;overflow=hidden;rotatable=0;points=[[0,0.5],[1,0.5]];portConstraint=eastwest;whiteSpace=wrap;html=1;" vertex="1" parent="pkAi6QiWiLod5w94hNvr-25">
          <mxGeometry y="26" width="188" height="26" as="geometry" />
        </mxCell>
        <mxCell id="pkAi6QiWiLod5w94hNvr-27" value="&lt;span style=&quot;font-family: Consolas, &amp;quot;Courier New&amp;quot;, monospace; font-size: 14px; white-space: pre;&quot;&gt;&lt;font color=&quot;#0000ff&quot;&gt;+ tip_rol: &lt;/font&gt;&lt;/span&gt;" style="text;strokeColor=none;fillColor=none;align=left;verticalAlign=top;spacingLeft=4;spacingRight=4;overflow=hidden;rotatable=0;points=[[0,0.5],[1,0.5]];portConstraint=eastwest;whiteSpace=wrap;html=1;" vertex="1" parent="pkAi6QiWiLod5w94hNvr-25">
          <mxGeometry y="52" width="188" height="26" as="geometry" />
        </mxCell>
        <mxCell id="pkAi6QiWiLod5w94hNvr-28" value="&lt;span style=&quot;font-family: Consolas, &amp;quot;Courier New&amp;quot;, monospace; font-size: 14px; white-space: pre;&quot;&gt;&lt;font color=&quot;#0000ff&quot;&gt;+ fk_dat_per:&lt;/font&gt;&lt;/span&gt;" style="text;strokeColor=none;fillColor=none;align=left;verticalAlign=top;spacingLeft=4;spacingRight=4;overflow=hidden;rotatable=0;points=[[0,0.5],[1,0.5]];portConstraint=eastwest;whiteSpace=wrap;html=1;" vertex="1" parent="pkAi6QiWiLod5w94hNvr-25">
          <mxGeometry y="78" width="188" height="26" as="geometry" />
        </mxCell>
        <mxCell id="pkAi6QiWiLod5w94hNvr-29" style="edgeStyle=orthogonalEdgeStyle;rounded=0;orthogonalLoop=1;jettySize=auto;html=1;exitX=0;exitY=0.5;exitDx=0;exitDy=0;entryX=0;entryY=0.5;entryDx=0;entryDy=0;" edge="1" parent="1" source="HBgZYf5v92plN2gd6lQA-19" target="pkAi6QiWiLod5w94hNvr-28">
          <mxGeometry relative="1" as="geometry" />
        </mxCell>
        <mxCell id="KGW0PSfiCSHTjBlbbvXK-1" value="&lt;blockquote style=&quot;margin: 0px 0px 0px 40px; border: none; padding: 0px;&quot;&gt;&lt;span style=&quot;color: rgb(34, 34, 34); font-family: Arial, Helvetica, sans-serif; font-size: small; text-align: start; background-color: rgb(255, 255, 255);&quot;&gt;intereses formativos;&amp;nbsp;&lt;/span&gt;&lt;/blockquote&gt;&lt;div&gt;&lt;span style=&quot;color: rgb(34, 34, 34); font-family: Arial, Helvetica, sans-serif; font-size: small; text-align: start; background-color: rgb(255, 255, 255);&quot;&gt;qué querrían estudiar;&lt;/span&gt;&lt;/div&gt;&lt;div&gt;&lt;span style=&quot;color: rgb(34, 34, 34); font-family: Arial, Helvetica, sans-serif; font-size: small; text-align: start; background-color: rgb(255, 255, 255);&quot;&gt;&amp;nbsp;qué han estudiado;&amp;nbsp;&lt;/span&gt;&lt;/div&gt;&lt;div&gt;&lt;span style=&quot;color: rgb(34, 34, 34); font-family: Arial, Helvetica, sans-serif; font-size: small; text-align: start; background-color: rgb(255, 255, 255);&quot;&gt;de qué han trabajado;&amp;nbsp;&lt;/span&gt;&lt;/div&gt;&lt;div&gt;&lt;span style=&quot;color: rgb(34, 34, 34); font-family: Arial, Helvetica, sans-serif; font-size: small; text-align: start; background-color: rgb(255, 255, 255);&quot;&gt;de qué querrían trabajar;&amp;nbsp;&lt;/span&gt;&lt;/div&gt;&lt;div&gt;&lt;span style=&quot;color: rgb(34, 34, 34); font-family: Arial, Helvetica, sans-serif; font-size: small; text-align: start; background-color: rgb(255, 255, 255);&quot;&gt;rango salarial deseado;&lt;/span&gt;&lt;/div&gt;&lt;div&gt;&lt;span style=&quot;font-family: Arial, Helvetica, sans-serif; font-size: small; text-align: start; background-color: rgb(255, 255, 255);&quot;&gt;&lt;font color=&quot;#c48ee6&quot;&gt;&amp;nbsp;localidad donde residen;&amp;nbsp;&lt;/font&gt;&lt;/span&gt;&lt;/div&gt;&lt;div&gt;&lt;span style=&quot;font-family: Arial, Helvetica, sans-serif; font-size: small; text-align: start; background-color: rgb(255, 255, 255);&quot;&gt;&lt;font color=&quot;#cc6600&quot;&gt;teléfono móvil y email;&amp;nbsp;&lt;/font&gt;&lt;/span&gt;&lt;/div&gt;&lt;div&gt;&lt;span style=&quot;color: rgb(34, 34, 34); font-family: Arial, Helvetica, sans-serif; font-size: small; text-align: start; background-color: rgb(255, 255, 255);&quot;&gt;pequeño extracto de presentación (cv)&lt;/span&gt;&lt;/div&gt;" style="shape=callout;whiteSpace=wrap;html=1;perimeter=calloutPerimeter;" vertex="1" parent="1">
          <mxGeometry x="247" y="100" width="171" height="210" as="geometry" />
        </mxCell>
        <mxCell id="HvInW79Dm-GSU3q8zvS4-1" value="&lt;div style=&quot;line-height: 19px;&quot;&gt;&lt;font face=&quot;Consolas, Courier New, monospace&quot; color=&quot;#6a9955&quot;&gt;&lt;span style=&quot;font-size: 14px; white-space: pre;&quot;&gt;TipoVia&lt;/span&gt;&lt;/font&gt;&lt;/div&gt;" style="swimlane;fontStyle=0;childLayout=stackLayout;horizontal=1;startSize=26;fillColor=#e1d5e7;horizontalStack=0;resizeParent=1;resizeParentMax=0;resizeLast=0;collapsible=1;marginBottom=0;whiteSpace=wrap;html=1;strokeColor=#9673a6;" vertex="1" parent="1">
          <mxGeometry x="-452.5" y="629" width="210" height="78" as="geometry" />
        </mxCell>
        <mxCell id="HvInW79Dm-GSU3q8zvS4-2" value="&lt;span style=&quot;font-family: Consolas, &amp;quot;Courier New&amp;quot;, monospace; font-size: 14px; white-space: pre;&quot;&gt;&lt;font color=&quot;#0000ff&quot;&gt;+ pk_via: SmallAutoField&lt;/font&gt;&lt;/span&gt;" style="text;strokeColor=#9673a6;fillColor=#e1d5e7;align=left;verticalAlign=top;spacingLeft=4;spacingRight=4;overflow=hidden;rotatable=0;points=[[0,0.5],[1,0.5]];portConstraint=eastwest;whiteSpace=wrap;html=1;" vertex="1" parent="HvInW79Dm-GSU3q8zvS4-1">
          <mxGeometry y="26" width="210" height="26" as="geometry" />
        </mxCell>
        <mxCell id="HvInW79Dm-GSU3q8zvS4-3" value="&lt;span style=&quot;font-family: Consolas, &amp;quot;Courier New&amp;quot;, monospace; font-size: 14px; white-space: pre;&quot;&gt;&lt;font color=&quot;#0000ff&quot;&gt;+ nom_via: Charfield (30)&lt;/font&gt;&lt;/span&gt;" style="text;strokeColor=#9673a6;fillColor=#e1d5e7;align=left;verticalAlign=top;spacingLeft=4;spacingRight=4;overflow=hidden;rotatable=0;points=[[0,0.5],[1,0.5]];portConstraint=eastwest;whiteSpace=wrap;html=1;" vertex="1" parent="HvInW79Dm-GSU3q8zvS4-1">
          <mxGeometry y="52" width="210" height="26" as="geometry" />
        </mxCell>
        <mxCell id="IO97pGm5Q4sqgZwQervl-3" value="&quot;__id&quot;, &#xa;&quot;email&quot;,&#xa;&quot;nif_entitat_formaci&quot;,&#xa; &quot;codi_municipi&quot;, &#xa;&quot;nom_entitat_formaci&quot;, &#xa;&quot;nom_municipi&quot;,   &#xa;&quot;codi_comarca&quot;,   &#xa;&quot;web&quot;, &#xa;&quot;nom_comarca&quot;, &#xa;&quot;tel_fon&quot;" style="text;whiteSpace=wrap;fontSize=16;" vertex="1" parent="1">
          <mxGeometry x="-640" y="2657" width="172" height="220" as="geometry" />
        </mxCell>
        <mxCell id="IO97pGm5Q4sqgZwQervl-43" style="edgeStyle=orthogonalEdgeStyle;rounded=0;orthogonalLoop=1;jettySize=auto;html=1;exitX=0;exitY=0.5;exitDx=0;exitDy=0;entryX=1;entryY=0.5;entryDx=0;entryDy=0;" edge="1" parent="1" source="IO97pGm5Q4sqgZwQervl-42" target="HvInW79Dm-GSU3q8zvS4-1">
          <mxGeometry relative="1" as="geometry" />
        </mxCell>
        <mxCell id="IO97pGm5Q4sqgZwQervl-47" style="edgeStyle=orthogonalEdgeStyle;rounded=0;orthogonalLoop=1;jettySize=auto;html=1;exitX=1;exitY=0.5;exitDx=0;exitDy=0;entryX=0;entryY=0.5;entryDx=0;entryDy=0;" edge="1" parent="1" source="wtTf2INtjH9rt9ekIBQD-57" target="IO97pGm5Q4sqgZwQervl-46">
          <mxGeometry relative="1" as="geometry" />
        </mxCell>
        <mxCell id="IO97pGm5Q4sqgZwQervl-48" style="edgeStyle=orthogonalEdgeStyle;rounded=0;orthogonalLoop=1;jettySize=auto;html=1;exitX=0;exitY=0.5;exitDx=0;exitDy=0;entryX=1;entryY=0.5;entryDx=0;entryDy=0;" edge="1" parent="1" source="IO97pGm5Q4sqgZwQervl-45" target="wtTf2INtjH9rt9ekIBQD-26">
          <mxGeometry relative="1" as="geometry" />
        </mxCell>
        <mxCell id="IO97pGm5Q4sqgZwQervl-49" style="edgeStyle=orthogonalEdgeStyle;rounded=0;orthogonalLoop=1;jettySize=auto;html=1;exitX=0;exitY=0.5;exitDx=0;exitDy=0;entryX=1;entryY=0.5;entryDx=0;entryDy=0;" edge="1" parent="1" source="wtTf2INtjH9rt9ekIBQD-59" target="wtTf2INtjH9rt9ekIBQD-9">
          <mxGeometry relative="1" as="geometry" />
        </mxCell>
        <mxCell id="IO97pGm5Q4sqgZwQervl-50" style="edgeStyle=orthogonalEdgeStyle;rounded=0;orthogonalLoop=1;jettySize=auto;html=1;exitX=0;exitY=0.5;exitDx=0;exitDy=0;entryX=0;entryY=0.5;entryDx=0;entryDy=0;" edge="1" parent="1" source="wtTf2INtjH9rt9ekIBQD-9" target="wtTf2INtjH9rt9ekIBQD-45">
          <mxGeometry relative="1" as="geometry" />
        </mxCell>
        <mxCell id="IO97pGm5Q4sqgZwQervl-109" style="edgeStyle=orthogonalEdgeStyle;rounded=0;orthogonalLoop=1;jettySize=auto;html=1;exitX=1;exitY=0.75;exitDx=0;exitDy=0;entryX=0;entryY=0.5;entryDx=0;entryDy=0;" edge="1" parent="1" source="IO97pGm5Q4sqgZwQervl-52" target="wtTf2INtjH9rt9ekIBQD-26">
          <mxGeometry relative="1" as="geometry">
            <Array as="points">
              <mxPoint x="-853" y="1309" />
              <mxPoint x="-803" y="1309" />
              <mxPoint x="-803" y="838" />
            </Array>
          </mxGeometry>
        </mxCell>
        <mxCell id="IO97pGm5Q4sqgZwQervl-52" value="&lt;div style=&quot;color: rgb(204, 204, 204); font-family: Consolas, &amp;quot;Courier New&amp;quot;, monospace; font-size: 14px; line-height: 19px; white-space: pre;&quot;&gt;&lt;span style=&quot;color: rgb(106, 153, 85);&quot;&gt;Oferta_Formativa&lt;/span&gt;&lt;/div&gt;" style="swimlane;fontStyle=0;childLayout=stackLayout;horizontal=1;startSize=26;fillColor=none;horizontalStack=0;resizeParent=1;resizeParentMax=0;resizeLast=0;collapsible=1;marginBottom=0;whiteSpace=wrap;html=1;" vertex="1" parent="1">
          <mxGeometry x="-1123" y="1138" width="270" height="258" as="geometry" />
        </mxCell>
        <mxCell id="IO97pGm5Q4sqgZwQervl-53" value="&lt;font color=&quot;#ff8000&quot;&gt;&lt;span style=&quot;font-family: Consolas, &amp;quot;Courier New&amp;quot;, monospace; font-size: 14px; white-space: pre;&quot;&gt;+ pk_ofe_form: charField(20)&lt;/span&gt;&lt;/font&gt;" style="text;strokeColor=none;fillColor=none;align=left;verticalAlign=top;spacingLeft=4;spacingRight=4;overflow=hidden;rotatable=0;points=[[0,0.5],[1,0.5]];portConstraint=eastwest;whiteSpace=wrap;html=1;" vertex="1" parent="IO97pGm5Q4sqgZwQervl-52">
          <mxGeometry y="26" width="270" height="26" as="geometry" />
        </mxCell>
        <mxCell id="IO97pGm5Q4sqgZwQervl-58" value="&lt;div style=&quot;font-family: Consolas, &amp;quot;Courier New&amp;quot;, monospace; font-size: 14px; line-height: 19px; white-space: pre;&quot;&gt;&lt;div style=&quot;line-height: 19px;&quot;&gt;&lt;font style=&quot;&quot; color=&quot;#0000ff&quot;&gt;+ nom_ofe: CharField(100)&lt;/font&gt;&lt;/div&gt;&lt;/div&gt;" style="text;strokeColor=none;fillColor=none;align=left;verticalAlign=top;spacingLeft=4;spacingRight=4;overflow=hidden;rotatable=0;points=[[0,0.5],[1,0.5]];portConstraint=eastwest;whiteSpace=wrap;html=1;" vertex="1" parent="IO97pGm5Q4sqgZwQervl-52">
          <mxGeometry y="52" width="270" height="26" as="geometry" />
        </mxCell>
        <mxCell id="IO97pGm5Q4sqgZwQervl-117" value="&lt;div style=&quot;font-family: Consolas, &amp;quot;Courier New&amp;quot;, monospace; font-size: 14px; line-height: 19px; white-space: pre;&quot;&gt;&lt;div style=&quot;line-height: 19px;&quot;&gt;&lt;font style=&quot;&quot; color=&quot;#0000ff&quot;&gt;+ area_prof_ent_for: CharField(44)&lt;/font&gt;&lt;/div&gt;&lt;/div&gt;" style="text;strokeColor=none;fillColor=none;align=left;verticalAlign=top;spacingLeft=4;spacingRight=4;overflow=hidden;rotatable=0;points=[[0,0.5],[1,0.5]];portConstraint=eastwest;whiteSpace=wrap;html=1;" vertex="1" parent="IO97pGm5Q4sqgZwQervl-52">
          <mxGeometry y="78" width="270" height="26" as="geometry" />
        </mxCell>
        <mxCell id="IO97pGm5Q4sqgZwQervl-54" value="&lt;div style=&quot;font-family: Consolas, &amp;quot;Courier New&amp;quot;, monospace; font-size: 14px; line-height: 19px; white-space: pre;&quot;&gt;&lt;font style=&quot;&quot; color=&quot;#0000ff&quot;&gt;+ fk_esc_for: Foreingnkey&lt;/font&gt;&lt;/div&gt;" style="text;strokeColor=#10739e;fillColor=#b1ddf0;align=left;verticalAlign=top;spacingLeft=4;spacingRight=4;overflow=hidden;rotatable=0;points=[[0,0.5],[1,0.5]];portConstraint=eastwest;whiteSpace=wrap;html=1;" vertex="1" parent="IO97pGm5Q4sqgZwQervl-52">
          <mxGeometry y="104" width="270" height="26" as="geometry" />
        </mxCell>
        <mxCell id="IO97pGm5Q4sqgZwQervl-55" value="&lt;div style=&quot;font-family: Consolas, &amp;quot;Courier New&amp;quot;, monospace; font-size: 14px; line-height: 19px; white-space: pre;&quot;&gt;&lt;font style=&quot;&quot; color=&quot;#0000ff&quot;&gt;+ fk_cal: Foreingnkey&lt;/font&gt;&lt;/div&gt;" style="text;strokeColor=#d79b00;fillColor=#ffe6cc;align=left;verticalAlign=top;spacingLeft=4;spacingRight=4;overflow=hidden;rotatable=0;points=[[0,0.5],[1,0.5]];portConstraint=eastwest;whiteSpace=wrap;html=1;" vertex="1" parent="IO97pGm5Q4sqgZwQervl-52">
          <mxGeometry y="130" width="270" height="26" as="geometry" />
        </mxCell>
        <mxCell id="IO97pGm5Q4sqgZwQervl-56" value="&lt;div style=&quot;font-family: Consolas, &amp;quot;Courier New&amp;quot;, monospace; font-size: 14px; line-height: 19px; white-space: pre;&quot;&gt;&lt;font style=&quot;&quot; color=&quot;#0000ff&quot;&gt;+ fk_cur: Foreignkey&lt;/font&gt;&lt;/div&gt;" style="text;strokeColor=#36393d;fillColor=#cdeb8b;align=left;verticalAlign=top;spacingLeft=4;spacingRight=4;overflow=hidden;rotatable=0;points=[[0,0.5],[1,0.5]];portConstraint=eastwest;whiteSpace=wrap;html=1;" vertex="1" parent="IO97pGm5Q4sqgZwQervl-52">
          <mxGeometry y="156" width="270" height="26" as="geometry" />
        </mxCell>
        <mxCell id="IO97pGm5Q4sqgZwQervl-108" value="&lt;div style=&quot;line-height: 19px;&quot;&gt;&lt;div style=&quot;line-height: 19px;&quot;&gt;&lt;font color=&quot;#007fff&quot; face=&quot;Consolas, Courier New, monospace&quot;&gt;&lt;span style=&quot;font-size: 14px; white-space: pre;&quot;&gt;+ fk_pro: ForeignKey&lt;/span&gt;&lt;/font&gt;&lt;/div&gt;&lt;/div&gt;" style="text;strokeColor=#666666;fillColor=#f5f5f5;align=left;verticalAlign=top;spacingLeft=4;spacingRight=4;overflow=hidden;rotatable=0;points=[[0,0.5],[1,0.5]];portConstraint=eastwest;whiteSpace=wrap;html=1;gradientColor=#b3b3b3;" vertex="1" parent="IO97pGm5Q4sqgZwQervl-52">
          <mxGeometry y="182" width="270" height="28" as="geometry" />
        </mxCell>
        <mxCell id="IO97pGm5Q4sqgZwQervl-59" value="&lt;div style=&quot;line-height: 19px;&quot;&gt;&lt;div style=&quot;line-height: 19px;&quot;&gt;&lt;font color=&quot;#ff66ff&quot; face=&quot;Consolas, Courier New, monospace&quot;&gt;&lt;span style=&quot;font-size: 14px; white-space: pre;&quot;&gt;+ fk_mun_ent_for: ForeignKey&lt;/span&gt;&lt;/font&gt;&lt;/div&gt;&lt;/div&gt;" style="text;strokeColor=none;fillColor=none;align=left;verticalAlign=top;spacingLeft=4;spacingRight=4;overflow=hidden;rotatable=0;points=[[0,0.5],[1,0.5]];portConstraint=eastwest;whiteSpace=wrap;html=1;" vertex="1" parent="IO97pGm5Q4sqgZwQervl-52">
          <mxGeometry y="210" width="270" height="24" as="geometry" />
        </mxCell>
        <mxCell id="IO97pGm5Q4sqgZwQervl-60" value="&lt;div style=&quot;line-height: 19px;&quot;&gt;&lt;div style=&quot;line-height: 19px;&quot;&gt;&lt;font face=&quot;Consolas, Courier New, monospace&quot;&gt;&lt;span style=&quot;font-size: 14px; white-space: pre;&quot;&gt;+ fk_com_ent_for: ForeignKey&lt;/span&gt;&lt;/font&gt;&lt;/div&gt;&lt;/div&gt;" style="text;strokeColor=#36393d;fillColor=#ffcccc;align=left;verticalAlign=top;spacingLeft=4;spacingRight=4;overflow=hidden;rotatable=0;points=[[0,0.5],[1,0.5]];portConstraint=eastwest;whiteSpace=wrap;html=1;" vertex="1" parent="IO97pGm5Q4sqgZwQervl-52">
          <mxGeometry y="234" width="270" height="24" as="geometry" />
        </mxCell>
        <mxCell id="IO97pGm5Q4sqgZwQervl-68" value="&lt;div style=&quot;color: rgb(204, 204, 204); font-family: Consolas, &amp;quot;Courier New&amp;quot;, monospace; font-size: 14px; line-height: 19px; white-space: pre;&quot;&gt;&lt;span style=&quot;color: rgb(0, 0, 0); font-family: Helvetica; font-size: 12px; white-space: normal;&quot;&gt;Calendario&lt;/span&gt;&lt;/div&gt;" style="swimlane;fontStyle=0;childLayout=stackLayout;horizontal=1;startSize=26;fillColor=#ffe6cc;horizontalStack=0;resizeParent=1;resizeParentMax=0;resizeLast=0;collapsible=1;marginBottom=0;whiteSpace=wrap;html=1;strokeColor=#d79b00;" vertex="1" parent="1">
          <mxGeometry x="-1415" y="1115" width="188" height="130" as="geometry" />
        </mxCell>
        <mxCell id="IO97pGm5Q4sqgZwQervl-69" value="&lt;span style=&quot;font-family: Consolas, &amp;quot;Courier New&amp;quot;, monospace; font-size: 14px; white-space: pre;&quot;&gt;&lt;font color=&quot;#0000ff&quot;&gt;+ pk_cal: charField(20)&lt;/font&gt;&lt;/span&gt;" style="text;strokeColor=#d79b00;fillColor=#ffe6cc;align=left;verticalAlign=top;spacingLeft=4;spacingRight=4;overflow=hidden;rotatable=0;points=[[0,0.5],[1,0.5]];portConstraint=eastwest;whiteSpace=wrap;html=1;" vertex="1" parent="IO97pGm5Q4sqgZwQervl-68">
          <mxGeometry y="26" width="188" height="26" as="geometry" />
        </mxCell>
        <mxCell id="IO97pGm5Q4sqgZwQervl-70" value="&lt;font color=&quot;#b266ff&quot; style=&quot;font-size: 14px;&quot;&gt;&lt;span style=&quot;font-family: Consolas, &amp;quot;Courier New&amp;quot;, monospace; white-space: pre;&quot;&gt;+ &lt;/span&gt;data_inici&lt;span style=&quot;font-family: Consolas, &amp;quot;Courier New&amp;quot;, monospace; white-space: pre;&quot;&gt;: date&lt;/span&gt;&lt;/font&gt;" style="text;strokeColor=#d79b00;fillColor=#ffe6cc;align=left;verticalAlign=top;spacingLeft=4;spacingRight=4;overflow=hidden;rotatable=0;points=[[0,0.5],[1,0.5]];portConstraint=eastwest;whiteSpace=wrap;html=1;" vertex="1" parent="IO97pGm5Q4sqgZwQervl-68">
          <mxGeometry y="52" width="188" height="26" as="geometry" />
        </mxCell>
        <mxCell id="IO97pGm5Q4sqgZwQervl-71" value="&lt;font color=&quot;#b266ff&quot;&gt;&lt;span style=&quot;font-family: Consolas, &amp;quot;Courier New&amp;quot;, monospace; font-size: 14px; white-space: pre;&quot;&gt;+ &lt;/span&gt;&lt;span style=&quot;font-size: 16px;&quot;&gt;data_final&lt;/span&gt;&lt;span style=&quot;font-family: Consolas, &amp;quot;Courier New&amp;quot;, monospace; font-size: 14px; white-space: pre;&quot;&gt;: int&lt;/span&gt;&lt;/font&gt;" style="text;strokeColor=#d79b00;fillColor=#ffe6cc;align=left;verticalAlign=top;spacingLeft=4;spacingRight=4;overflow=hidden;rotatable=0;points=[[0,0.5],[1,0.5]];portConstraint=eastwest;whiteSpace=wrap;html=1;" vertex="1" parent="IO97pGm5Q4sqgZwQervl-68">
          <mxGeometry y="78" width="188" height="26" as="geometry" />
        </mxCell>
        <mxCell id="IO97pGm5Q4sqgZwQervl-72" value="&lt;font color=&quot;#b266ff&quot;&gt;&lt;span style=&quot;font-family: Consolas, &amp;quot;Courier New&amp;quot;, monospace; font-size: 14px; white-space: pre;&quot;&gt;+ &lt;/span&gt;&lt;span style=&quot;font-size: 16px;&quot;&gt;num_grup&lt;/span&gt;&lt;span style=&quot;font-family: Consolas, &amp;quot;Courier New&amp;quot;, monospace; font-size: 14px; white-space: pre;&quot;&gt;: int&lt;/span&gt;&lt;/font&gt;" style="text;strokeColor=#d79b00;fillColor=#ffe6cc;align=left;verticalAlign=top;spacingLeft=4;spacingRight=4;overflow=hidden;rotatable=0;points=[[0,0.5],[1,0.5]];portConstraint=eastwest;whiteSpace=wrap;html=1;" vertex="1" parent="IO97pGm5Q4sqgZwQervl-68">
          <mxGeometry y="104" width="188" height="26" as="geometry" />
        </mxCell>
        <mxCell id="IO97pGm5Q4sqgZwQervl-73" value="&lt;div style=&quot;color: rgb(204, 204, 204); font-family: Consolas, &amp;quot;Courier New&amp;quot;, monospace; font-size: 14px; line-height: 19px; white-space: pre;&quot;&gt;&lt;span style=&quot;color: rgb(0, 0, 0); font-family: Helvetica; font-size: 12px; white-space: normal;&quot;&gt;Cursos&lt;/span&gt;&lt;/div&gt;" style="swimlane;fontStyle=0;childLayout=stackLayout;horizontal=1;startSize=26;fillColor=#cdeb8b;horizontalStack=0;resizeParent=1;resizeParentMax=0;resizeLast=0;collapsible=1;marginBottom=0;whiteSpace=wrap;html=1;strokeColor=#36393d;" vertex="1" parent="1">
          <mxGeometry x="-1415.5" y="1279" width="211" height="262" as="geometry" />
        </mxCell>
        <mxCell id="IO97pGm5Q4sqgZwQervl-74" value="&lt;span style=&quot;font-family: Consolas, &amp;quot;Courier New&amp;quot;, monospace; font-size: 14px; white-space: pre;&quot;&gt;&lt;font color=&quot;#0000ff&quot;&gt;+ pk_cur: charField(20)&lt;/font&gt;&lt;/span&gt;" style="text;strokeColor=#36393d;fillColor=#cdeb8b;align=left;verticalAlign=top;spacingLeft=4;spacingRight=4;overflow=hidden;rotatable=0;points=[[0,0.5],[1,0.5]];portConstraint=eastwest;whiteSpace=wrap;html=1;" vertex="1" parent="IO97pGm5Q4sqgZwQervl-73">
          <mxGeometry y="26" width="211" height="26" as="geometry" />
        </mxCell>
        <mxCell id="IO97pGm5Q4sqgZwQervl-75" value="&lt;div style=&quot;font-family: Consolas, &amp;quot;Courier New&amp;quot;, monospace; font-size: 14px; line-height: 19px; white-space: pre;&quot;&gt;&lt;div style=&quot;line-height: 19px;&quot;&gt;&lt;font style=&quot;&quot; color=&quot;#0000ff&quot;&gt;+ idt_ent_for: IntegerField&lt;/font&gt;&lt;/div&gt;&lt;/div&gt;" style="text;strokeColor=#36393d;fillColor=#cdeb8b;align=left;verticalAlign=top;spacingLeft=4;spacingRight=4;overflow=hidden;rotatable=0;points=[[0,0.5],[1,0.5]];portConstraint=eastwest;whiteSpace=wrap;html=1;" vertex="1" parent="IO97pGm5Q4sqgZwQervl-73">
          <mxGeometry y="52" width="211" height="26" as="geometry" />
        </mxCell>
        <mxCell id="IO97pGm5Q4sqgZwQervl-76" value="&lt;font color=&quot;#0000ff&quot;&gt;&lt;span style=&quot;font-family: Consolas, &amp;quot;Courier New&amp;quot;, monospace; font-size: 14px; white-space: pre;&quot;&gt;+ a&lt;/span&gt;&lt;/font&gt;&lt;span style=&quot;font-family: Consolas, &amp;quot;Courier New&amp;quot;, monospace; font-size: 14px; white-space: pre; color: rgb(0, 0, 255); background-color: initial;&quot;&gt;rea_pro_cur: Charfield(44)&lt;/span&gt;" style="text;strokeColor=#36393d;fillColor=#cdeb8b;align=left;verticalAlign=top;spacingLeft=4;spacingRight=4;overflow=hidden;rotatable=0;points=[[0,0.5],[1,0.5]];portConstraint=eastwest;whiteSpace=wrap;html=1;" vertex="1" parent="IO97pGm5Q4sqgZwQervl-73">
          <mxGeometry y="78" width="211" height="26" as="geometry" />
        </mxCell>
        <mxCell id="IO97pGm5Q4sqgZwQervl-61" value="&lt;div style=&quot;line-height: 19px;&quot;&gt;&lt;div style=&quot;line-height: 19px;&quot;&gt;&lt;font color=&quot;#007fff&quot; face=&quot;Consolas, Courier New, monospace&quot;&gt;&lt;span style=&quot;font-size: 14px; white-space: pre;&quot;&gt;+ fk_fam_pro: ForeignKey&lt;/span&gt;&lt;/font&gt;&lt;/div&gt;&lt;/div&gt;" style="text;strokeColor=none;fillColor=none;align=left;verticalAlign=top;spacingLeft=4;spacingRight=4;overflow=hidden;rotatable=0;points=[[0,0.5],[1,0.5]];portConstraint=eastwest;whiteSpace=wrap;html=1;" vertex="1" parent="IO97pGm5Q4sqgZwQervl-73">
          <mxGeometry y="104" width="211" height="28" as="geometry" />
        </mxCell>
        <mxCell id="IO97pGm5Q4sqgZwQervl-105" value="&lt;font color=&quot;#0000ff&quot;&gt;&lt;span style=&quot;font-family: Consolas, &amp;quot;Courier New&amp;quot;, monospace; font-size: 14px; white-space: pre;&quot;&gt;+ fam_pro&lt;/span&gt;&lt;/font&gt;&lt;span style=&quot;font-family: Consolas, &amp;quot;Courier New&amp;quot;, monospace; font-size: 14px; white-space: pre; color: rgb(0, 0, 255); background-color: initial;&quot;&gt;_cur: Charfield(44)&lt;/span&gt;" style="text;strokeColor=#36393d;fillColor=none;align=left;verticalAlign=top;spacingLeft=4;spacingRight=4;overflow=hidden;rotatable=0;points=[[0,0.5],[1,0.5]];portConstraint=eastwest;whiteSpace=wrap;html=1;" vertex="1" parent="IO97pGm5Q4sqgZwQervl-73">
          <mxGeometry y="132" width="211" height="26" as="geometry" />
        </mxCell>
        <mxCell id="IO97pGm5Q4sqgZwQervl-79" value="&lt;div style=&quot;font-family: Consolas, &amp;quot;Courier New&amp;quot;, monospace; font-size: 14px; line-height: 19px; white-space: pre;&quot;&gt;&lt;div style=&quot;line-height: 19px;&quot;&gt;&lt;font style=&quot;&quot; color=&quot;#0000ff&quot;&gt;+ fk_den_cur: CharField (100)&lt;/font&gt;&lt;/div&gt;&lt;/div&gt;" style="text;strokeColor=#36393d;fillColor=#cdeb8b;align=left;verticalAlign=top;spacingLeft=4;spacingRight=4;overflow=hidden;rotatable=0;points=[[0,0.5],[1,0.5]];portConstraint=eastwest;whiteSpace=wrap;html=1;" vertex="1" parent="IO97pGm5Q4sqgZwQervl-73">
          <mxGeometry y="158" width="211" height="26" as="geometry" />
        </mxCell>
        <mxCell id="IO97pGm5Q4sqgZwQervl-78" value="&lt;div style=&quot;font-family: Consolas, &amp;quot;Courier New&amp;quot;, monospace; font-size: 14px; line-height: 19px; white-space: pre;&quot;&gt;&lt;div style=&quot;line-height: 19px;&quot;&gt;&lt;font style=&quot;&quot; color=&quot;#0000ff&quot;&gt;+ amb_ent_for: CharField (100)&lt;/font&gt;&lt;/div&gt;&lt;/div&gt;" style="text;strokeColor=#36393d;fillColor=#cdeb8b;align=left;verticalAlign=top;spacingLeft=4;spacingRight=4;overflow=hidden;rotatable=0;points=[[0,0.5],[1,0.5]];portConstraint=eastwest;whiteSpace=wrap;html=1;" vertex="1" parent="IO97pGm5Q4sqgZwQervl-73">
          <mxGeometry y="184" width="211" height="26" as="geometry" />
        </mxCell>
        <mxCell id="IO97pGm5Q4sqgZwQervl-77" value="&lt;div style=&quot;font-family: Consolas, &amp;quot;Courier New&amp;quot;, monospace; font-size: 14px; line-height: 19px; white-space: pre;&quot;&gt;&lt;div style=&quot;line-height: 19px;&quot;&gt;&lt;font style=&quot;&quot; color=&quot;#0000ff&quot;&gt;+ horas_cur: IntegerField&lt;/font&gt;&lt;/div&gt;&lt;/div&gt;" style="text;strokeColor=#36393d;fillColor=#cdeb8b;align=left;verticalAlign=top;spacingLeft=4;spacingRight=4;overflow=hidden;rotatable=0;points=[[0,0.5],[1,0.5]];portConstraint=eastwest;whiteSpace=wrap;html=1;" vertex="1" parent="IO97pGm5Q4sqgZwQervl-73">
          <mxGeometry y="210" width="211" height="26" as="geometry" />
        </mxCell>
        <mxCell id="IO97pGm5Q4sqgZwQervl-80" value="&lt;div style=&quot;font-family: Consolas, &amp;quot;Courier New&amp;quot;, monospace; font-size: 14px; line-height: 19px; white-space: pre;&quot;&gt;&lt;div style=&quot;line-height: 19px;&quot;&gt;&lt;font style=&quot;&quot; color=&quot;#0000ff&quot;&gt;+ mod_ent_for : CharField (50)&lt;/font&gt;&lt;/div&gt;&lt;/div&gt;" style="text;strokeColor=#36393d;fillColor=#cdeb8b;align=left;verticalAlign=top;spacingLeft=4;spacingRight=4;overflow=hidden;rotatable=0;points=[[0,0.5],[1,0.5]];portConstraint=eastwest;whiteSpace=wrap;html=1;" vertex="1" parent="IO97pGm5Q4sqgZwQervl-73">
          <mxGeometry y="236" width="211" height="26" as="geometry" />
        </mxCell>
        <mxCell id="IO97pGm5Q4sqgZwQervl-82" value="&lt;div style=&quot;color: rgb(204, 204, 204); font-family: Consolas, &amp;quot;Courier New&amp;quot;, monospace; font-size: 14px; line-height: 19px; white-space: pre;&quot;&gt;&lt;span style=&quot;color: rgb(0, 0, 0); font-family: Helvetica; font-size: 12px; white-space: normal;&quot;&gt;Escuela&lt;/span&gt;&lt;/div&gt;" style="swimlane;fontStyle=0;childLayout=stackLayout;horizontal=1;startSize=26;fillColor=#b1ddf0;horizontalStack=0;resizeParent=1;resizeParentMax=0;resizeLast=0;collapsible=1;marginBottom=0;whiteSpace=wrap;html=1;strokeColor=default;" vertex="1" parent="1">
          <mxGeometry x="-1460" y="896" width="260" height="178" as="geometry" />
        </mxCell>
        <mxCell id="IO97pGm5Q4sqgZwQervl-83" value="&lt;font color=&quot;#ff8000&quot;&gt;&lt;span style=&quot;font-family: Consolas, &amp;quot;Courier New&amp;quot;, monospace; font-size: 14px; white-space: pre;&quot;&gt;+ pk_esc_for: charField(20)&lt;/span&gt;&lt;/font&gt;" style="text;strokeColor=#10739e;fillColor=#b1ddf0;align=left;verticalAlign=top;spacingLeft=4;spacingRight=4;overflow=hidden;rotatable=0;points=[[0,0.5],[1,0.5]];portConstraint=eastwest;whiteSpace=wrap;html=1;" vertex="1" parent="IO97pGm5Q4sqgZwQervl-82">
          <mxGeometry y="26" width="260" height="26" as="geometry" />
        </mxCell>
        <mxCell id="IO97pGm5Q4sqgZwQervl-84" value="&lt;span style=&quot;font-family: Consolas, &amp;quot;Courier New&amp;quot;, monospace; font-size: 14px; white-space: pre;&quot;&gt;&lt;font color=&quot;#0000ff&quot;&gt;+ nom_ent_for: Charfield (44)&lt;/font&gt;&lt;/span&gt;" style="text;strokeColor=#10739e;fillColor=#b1ddf0;align=left;verticalAlign=top;spacingLeft=4;spacingRight=4;overflow=hidden;rotatable=0;points=[[0,0.5],[1,0.5]];portConstraint=eastwest;whiteSpace=wrap;html=1;" vertex="1" parent="IO97pGm5Q4sqgZwQervl-82">
          <mxGeometry y="52" width="260" height="26" as="geometry" />
        </mxCell>
        <mxCell id="IO97pGm5Q4sqgZwQervl-85" value="&lt;div style=&quot;font-family: Consolas, &amp;quot;Courier New&amp;quot;, monospace; font-size: 14px; line-height: 19px; white-space: pre;&quot;&gt;&lt;font style=&quot;&quot; color=&quot;#0000ff&quot;&gt;+ email_ent_for: EmailField&lt;/font&gt;&lt;/div&gt;" style="text;strokeColor=#10739e;fillColor=#b1ddf0;align=left;verticalAlign=top;spacingLeft=4;spacingRight=4;overflow=hidden;rotatable=0;points=[[0,0.5],[1,0.5]];portConstraint=eastwest;whiteSpace=wrap;html=1;" vertex="1" parent="IO97pGm5Q4sqgZwQervl-82">
          <mxGeometry y="78" width="260" height="26" as="geometry" />
        </mxCell>
        <mxCell id="IO97pGm5Q4sqgZwQervl-86" value="&lt;div style=&quot;font-family: Consolas, &amp;quot;Courier New&amp;quot;, monospace; font-size: 14px; line-height: 19px; white-space: pre;&quot;&gt;&lt;font style=&quot;&quot; color=&quot;#0000ff&quot;&gt;+ nif_ent_for: Charfield (20)&lt;/font&gt;&lt;/div&gt;" style="text;strokeColor=#10739e;fillColor=#b1ddf0;align=left;verticalAlign=top;spacingLeft=4;spacingRight=4;overflow=hidden;rotatable=0;points=[[0,0.5],[1,0.5]];portConstraint=eastwest;whiteSpace=wrap;html=1;" vertex="1" parent="IO97pGm5Q4sqgZwQervl-82">
          <mxGeometry y="104" width="260" height="26" as="geometry" />
        </mxCell>
        <mxCell id="IO97pGm5Q4sqgZwQervl-87" value="&lt;div style=&quot;font-family: Consolas, &amp;quot;Courier New&amp;quot;, monospace; font-size: 14px; line-height: 19px; white-space: pre;&quot;&gt;&lt;div style=&quot;line-height: 19px;&quot;&gt;&lt;font style=&quot;&quot; color=&quot;#0000ff&quot;&gt;+ web_ent_for: URLFiled&lt;/font&gt;&lt;/div&gt;&lt;/div&gt;" style="text;strokeColor=#10739e;fillColor=#b1ddf0;align=left;verticalAlign=top;spacingLeft=4;spacingRight=4;overflow=hidden;rotatable=0;points=[[0,0.5],[1,0.5]];portConstraint=eastwest;whiteSpace=wrap;html=1;" vertex="1" parent="IO97pGm5Q4sqgZwQervl-82">
          <mxGeometry y="130" width="260" height="24" as="geometry" />
        </mxCell>
        <mxCell id="IO97pGm5Q4sqgZwQervl-88" value="&lt;div style=&quot;font-family: Consolas, &amp;quot;Courier New&amp;quot;, monospace; font-size: 14px; line-height: 19px; white-space: pre;&quot;&gt;&lt;div style=&quot;line-height: 19px;&quot;&gt;&lt;font style=&quot;&quot; color=&quot;#0000ff&quot;&gt;+ tel_ent_for: &lt;/font&gt;&lt;font style=&quot;&quot; color=&quot;#0000ff&quot;&gt;IntegerField&lt;/font&gt;&lt;/div&gt;&lt;/div&gt;" style="text;strokeColor=#10739e;fillColor=#b1ddf0;align=left;verticalAlign=top;spacingLeft=4;spacingRight=4;overflow=hidden;rotatable=0;points=[[0,0.5],[1,0.5]];portConstraint=eastwest;whiteSpace=wrap;html=1;" vertex="1" parent="IO97pGm5Q4sqgZwQervl-82">
          <mxGeometry y="154" width="260" height="24" as="geometry" />
        </mxCell>
        <mxCell id="IO97pGm5Q4sqgZwQervl-94" style="edgeStyle=orthogonalEdgeStyle;rounded=0;orthogonalLoop=1;jettySize=auto;html=1;exitX=1;exitY=0.5;exitDx=0;exitDy=0;entryX=0;entryY=0.5;entryDx=0;entryDy=0;" edge="1" parent="1" source="IO97pGm5Q4sqgZwQervl-59" target="wtTf2INtjH9rt9ekIBQD-57">
          <mxGeometry relative="1" as="geometry">
            <Array as="points">
              <mxPoint x="-753" y="1334" />
              <mxPoint x="-753" y="1018" />
            </Array>
          </mxGeometry>
        </mxCell>
        <mxCell id="IO97pGm5Q4sqgZwQervl-95" style="edgeStyle=orthogonalEdgeStyle;rounded=0;orthogonalLoop=1;jettySize=auto;html=1;exitX=1;exitY=0.5;exitDx=0;exitDy=0;entryX=0;entryY=0.5;entryDx=0;entryDy=0;" edge="1" parent="1" source="IO97pGm5Q4sqgZwQervl-60" target="wtTf2INtjH9rt9ekIBQD-9">
          <mxGeometry relative="1" as="geometry" />
        </mxCell>
        <mxCell id="IO97pGm5Q4sqgZwQervl-98" value="&lt;div style=&quot;text-align: left;&quot;&gt;&lt;span style=&quot;background-color: initial;&quot;&gt;&quot;13&quot;;&quot;Barcelonès&quot;&lt;/span&gt;&lt;/div&gt;&lt;div style=&quot;text-align: left;&quot;&gt;&lt;span style=&quot;background-color: initial;&quot;&gt;&quot;36&quot;;&quot;Tarragonès&quot;&lt;/span&gt;&lt;/div&gt;" style="shape=callout;whiteSpace=wrap;html=1;perimeter=calloutPerimeter;" vertex="1" parent="1">
          <mxGeometry x="-653" y="1259" width="120" height="70" as="geometry" />
        </mxCell>
        <mxCell id="IO97pGm5Q4sqgZwQervl-99" value="&lt;div style=&quot;text-align: left;&quot;&gt;&lt;span style=&quot;background-color: initial;&quot;&gt;&quot;08&quot;;&quot;43&quot;&lt;/span&gt;&lt;/div&gt;&lt;div style=&quot;text-align: left;&quot;&gt;&lt;span style=&quot;background-color: initial;&quot;&gt;&quot;31&quot;;&quot;17&quot;&lt;/span&gt;&lt;/div&gt;" style="shape=callout;whiteSpace=wrap;html=1;perimeter=calloutPerimeter;" vertex="1" parent="1">
          <mxGeometry x="-640" y="1062" width="80" height="70" as="geometry" />
        </mxCell>
        <mxCell id="IO97pGm5Q4sqgZwQervl-100" value="&lt;div style=&quot;text-align: left;&quot;&gt;&quot;08&quot;;&quot;Barcelona&quot;&lt;/div&gt;&lt;div style=&quot;text-align: left;&quot;&gt;&lt;span style=&quot;background-color: initial;&quot;&gt;&quot;43&quot;;&quot;Tarragona&quot;&lt;/span&gt;&lt;/div&gt;" style="shape=callout;whiteSpace=wrap;html=1;perimeter=calloutPerimeter;" vertex="1" parent="1">
          <mxGeometry x="-401" y="727" width="120" height="70" as="geometry" />
        </mxCell>
        <mxCell id="IO97pGm5Q4sqgZwQervl-103" style="edgeStyle=orthogonalEdgeStyle;rounded=0;orthogonalLoop=1;jettySize=auto;html=1;exitX=0;exitY=0.5;exitDx=0;exitDy=0;entryX=1;entryY=0.5;entryDx=0;entryDy=0;" edge="1" parent="1" source="IO97pGm5Q4sqgZwQervl-55" target="IO97pGm5Q4sqgZwQervl-69">
          <mxGeometry relative="1" as="geometry" />
        </mxCell>
        <mxCell id="IO97pGm5Q4sqgZwQervl-104" value="&lt;div style=&quot;&quot;&gt;Entidad Formadora&lt;/div&gt;" style="shape=callout;whiteSpace=wrap;html=1;perimeter=calloutPerimeter;align=center;" vertex="1" parent="1">
          <mxGeometry x="-1333" y="824" width="80" height="70" as="geometry" />
        </mxCell>
        <mxCell id="IO97pGm5Q4sqgZwQervl-106" style="edgeStyle=orthogonalEdgeStyle;rounded=0;orthogonalLoop=1;jettySize=auto;html=1;exitX=0;exitY=0.5;exitDx=0;exitDy=0;entryX=1;entryY=0.5;entryDx=0;entryDy=0;" edge="1" parent="1" source="IO97pGm5Q4sqgZwQervl-56" target="IO97pGm5Q4sqgZwQervl-74">
          <mxGeometry relative="1" as="geometry" />
        </mxCell>
        <mxCell id="IO97pGm5Q4sqgZwQervl-107" style="edgeStyle=orthogonalEdgeStyle;rounded=0;orthogonalLoop=1;jettySize=auto;html=1;exitX=0;exitY=0.5;exitDx=0;exitDy=0;" edge="1" parent="1" source="IO97pGm5Q4sqgZwQervl-54" target="IO97pGm5Q4sqgZwQervl-83">
          <mxGeometry relative="1" as="geometry" />
        </mxCell>
        <mxCell id="IO97pGm5Q4sqgZwQervl-110" value="&lt;div style=&quot;color: rgb(204, 204, 204); font-family: Consolas, &amp;quot;Courier New&amp;quot;, monospace; font-size: 14px; line-height: 19px; white-space: pre;&quot;&gt;&lt;span style=&quot;color: rgb(106, 153, 85);&quot;&gt;Oferta_Asignada&lt;/span&gt;&lt;/div&gt;" style="swimlane;fontStyle=0;childLayout=stackLayout;horizontal=1;startSize=26;fillColor=none;horizontalStack=0;resizeParent=1;resizeParentMax=0;resizeLast=0;collapsible=1;marginBottom=0;whiteSpace=wrap;html=1;" vertex="1" parent="1">
          <mxGeometry x="-753" y="299" width="210" height="130" as="geometry" />
        </mxCell>
        <mxCell id="IO97pGm5Q4sqgZwQervl-111" value="&lt;span style=&quot;font-family: Consolas, &amp;quot;Courier New&amp;quot;, monospace; font-size: 14px; white-space: pre;&quot;&gt;&lt;font color=&quot;#0000ff&quot;&gt;+ pk_rol_user:&lt;/font&gt;&lt;/span&gt;" style="text;strokeColor=none;fillColor=none;align=left;verticalAlign=top;spacingLeft=4;spacingRight=4;overflow=hidden;rotatable=0;points=[[0,0.5],[1,0.5]];portConstraint=eastwest;whiteSpace=wrap;html=1;" vertex="1" parent="IO97pGm5Q4sqgZwQervl-110">
          <mxGeometry y="26" width="210" height="26" as="geometry" />
        </mxCell>
        <mxCell id="IO97pGm5Q4sqgZwQervl-112" value="&lt;span style=&quot;font-family: Consolas, &amp;quot;Courier New&amp;quot;, monospace; font-size: 14px; white-space: pre;&quot;&gt;&lt;font color=&quot;#0000ff&quot;&gt;+ tip_rol: &lt;/font&gt;&lt;/span&gt;" style="text;strokeColor=none;fillColor=none;align=left;verticalAlign=top;spacingLeft=4;spacingRight=4;overflow=hidden;rotatable=0;points=[[0,0.5],[1,0.5]];portConstraint=eastwest;whiteSpace=wrap;html=1;" vertex="1" parent="IO97pGm5Q4sqgZwQervl-110">
          <mxGeometry y="52" width="210" height="26" as="geometry" />
        </mxCell>
        <mxCell id="IO97pGm5Q4sqgZwQervl-114" value="&lt;div style=&quot;line-height: 19px;&quot;&gt;&lt;font style=&quot;&quot; color=&quot;#0000ff&quot;&gt;&lt;font face=&quot;Consolas, Courier New, monospace&quot;&gt;&lt;span style=&quot;font-size: 14px; white-space: pre;&quot;&gt;+ fk_dat_pr: Foreingkey&lt;/span&gt;&lt;/font&gt;&lt;/font&gt;&lt;/div&gt;" style="text;strokeColor=#0e8088;fillColor=#b0e3e6;align=left;verticalAlign=top;spacingLeft=4;spacingRight=4;overflow=hidden;rotatable=0;points=[[0,0.5],[1,0.5]];portConstraint=eastwest;whiteSpace=wrap;html=1;" vertex="1" parent="IO97pGm5Q4sqgZwQervl-110">
          <mxGeometry y="78" width="210" height="26" as="geometry" />
        </mxCell>
        <mxCell id="IO97pGm5Q4sqgZwQervl-113" value="&lt;span style=&quot;font-family: Consolas, &amp;quot;Courier New&amp;quot;, monospace; font-size: 14px; white-space: pre;&quot;&gt;&lt;font color=&quot;#0000ff&quot;&gt;+ fk_ofe_form: Foreingkey&lt;/font&gt;&lt;/span&gt;" style="text;strokeColor=none;fillColor=none;align=left;verticalAlign=top;spacingLeft=4;spacingRight=4;overflow=hidden;rotatable=0;points=[[0,0.5],[1,0.5]];portConstraint=eastwest;whiteSpace=wrap;html=1;" vertex="1" parent="IO97pGm5Q4sqgZwQervl-110">
          <mxGeometry y="104" width="210" height="26" as="geometry" />
        </mxCell>
        <mxCell id="IO97pGm5Q4sqgZwQervl-115" style="edgeStyle=orthogonalEdgeStyle;rounded=0;orthogonalLoop=1;jettySize=auto;html=1;exitX=0;exitY=0.5;exitDx=0;exitDy=0;" edge="1" parent="1" source="HBgZYf5v92plN2gd6lQA-19" target="IO97pGm5Q4sqgZwQervl-114">
          <mxGeometry relative="1" as="geometry" />
        </mxCell>
        <mxCell id="IO97pGm5Q4sqgZwQervl-116" style="edgeStyle=orthogonalEdgeStyle;rounded=0;orthogonalLoop=1;jettySize=auto;html=1;exitX=0;exitY=0.5;exitDx=0;exitDy=0;entryX=0;entryY=0.5;entryDx=0;entryDy=0;" edge="1" parent="1" source="IO97pGm5Q4sqgZwQervl-113" target="IO97pGm5Q4sqgZwQervl-53">
          <mxGeometry relative="1" as="geometry" />
        </mxCell>
      </root>
    </mxGraphModel>
  </diagram>
</mxfile>
